<svg width="100" height="102" viewBox="0 0 100 102" fill="none" xmlns="http://www.w3.org/2000/svg">
<path d="M49.9999 61.8216C55.9171 61.8216 60.7142 56.9765 60.7142 51.0001C60.7142 45.0238 55.9171 40.1787 49.9999 40.1787C44.0828 40.1787 39.2856 45.0238 39.2856 51.0001C39.2856 56.9765 44.0828 61.8216 49.9999 61.8216Z" fill="#389BBC"/>
<path fill-rule="evenodd" clip-rule="evenodd" d="M57.1429 11.9757C73.1129 14.9385 85.7043 27.6557 88.6379 43.7857H100V58.2143H88.6379C85.7043 74.344 73.1129 87.0613 57.1429 90.0242V101.5H42.8571V90.0242C26.8869 87.0613 14.2956 74.344 11.3621 58.2143H0V43.7857H11.3621C14.2956 27.6557 26.8869 14.9385 42.8571 11.9757V0.5H57.1429V11.9757ZM75 51C75 64.9452 63.8071 76.25 50 76.25C36.1929 76.25 25 64.9452 25 51C25 37.0548 36.1929 25.75 50 25.75C63.8071 25.75 75 37.0548 75 51Z" fill="#389BBC"/>
</svg>
