<svg width="600" height="600" viewBox="0 0 600 600" fill="none" xmlns="http://www.w3.org/2000/svg">
<path d="M116.339 177.933L116.133 176.651H114.824C89.338 176.651 81.0724 168.618 81.0035 168.551L79.9014 167.336L78.7993 168.551C78.7304 168.618 70.5337 176.651 44.979 176.651H43.6703L43.4636 177.933C43.3947 178.338 38.0221 218.567 79.2126 239.222L79.9014 239.559L80.5902 239.222C121.919 218.567 116.339 178.338 116.339 177.933ZM110.14 202.84C105.043 217.285 94.8485 228.489 79.8325 236.184C64.8166 228.489 54.6223 217.285 49.5251 202.84C45.8056 192.243 46.0122 182.995 46.2877 179.688C67.5029 179.418 76.9396 173.883 79.8325 171.588C82.7255 173.816 92.1621 179.418 113.377 179.688C113.653 183.063 113.86 192.243 110.14 202.84ZM156.772 126.229L155.326 122.517C154.017 122.382 152.777 122.044 151.537 121.639L148.575 124.339L140.034 118.332L141.687 114.687C140.861 113.675 140.172 112.595 139.621 111.447L135.557 111.312L133.835 101.12L137.623 99.7024C137.761 98.42 138.105 97.205 138.519 95.99L135.764 93.0876L141.894 84.6503L145.613 86.2703C146.647 85.4603 147.749 84.7853 148.92 84.2453L149.057 80.2629L159.458 78.5754L160.905 82.2878C162.214 82.4228 163.453 82.7603 164.693 83.1653L167.655 80.4654L176.196 86.4727L174.543 90.1177C175.37 91.1301 176.059 92.2101 176.61 93.3576L180.674 93.4926L182.396 103.685L178.607 105.102C178.401 106.385 178.125 107.6 177.712 108.815L180.467 111.717L174.337 120.154L170.617 118.534C169.584 119.344 168.482 120.019 167.311 120.559L167.173 124.542L156.772 126.229ZM150.848 118.399L151.675 118.737C153.19 119.344 154.843 119.682 156.497 119.817L157.392 119.884L158.632 123.057L164.349 122.112L164.487 118.737L165.313 118.399C166.829 117.724 168.206 116.847 169.515 115.835L170.204 115.295L173.372 116.712L176.747 112.122L174.337 109.625L174.681 108.815C175.301 107.33 175.645 105.71 175.783 104.09L175.852 103.212L179.089 101.997L178.125 96.395L174.681 96.26L174.337 95.45C173.648 93.9651 172.752 92.6151 171.719 91.3326L171.168 90.6576L172.615 87.5527L167.931 84.2453L165.382 86.5402L164.556 86.2028C163.04 85.5953 161.387 85.2578 159.734 85.1228L158.838 85.0553L157.599 81.8829L151.882 82.8278L151.744 86.2028L150.917 86.5402C149.402 87.2152 148.024 88.0927 146.716 89.1052L146.027 89.6452L142.858 88.2277L139.483 92.8176L141.894 95.315L141.549 96.125C140.93 97.61 140.585 99.2299 140.447 100.85L140.379 101.727L137.141 102.942L138.105 108.545L141.549 108.68L141.894 109.49C142.583 110.975 143.478 112.325 144.511 113.607L145.062 114.282L143.616 117.387L148.3 120.694L150.848 118.399ZM158.012 113.675C155.67 113.675 153.328 112.932 151.399 111.582C146.233 108.005 145.062 100.985 148.713 95.9225C152.364 90.8601 159.527 89.7127 164.693 93.2901C167.173 95.045 168.826 97.61 169.377 100.58C169.859 103.55 169.171 106.52 167.449 108.95C165.658 111.38 163.04 113 160.009 113.54C159.252 113.607 158.632 113.675 158.012 113.675ZM158.012 94.0326C155.326 94.0326 152.708 95.2475 151.055 97.5425C149.746 99.3649 149.195 101.592 149.609 103.82C150.022 106.047 151.193 107.937 153.053 109.22C154.912 110.502 157.185 111.042 159.458 110.637C161.731 110.232 163.66 109.085 164.969 107.262C166.278 105.44 166.829 103.212 166.415 100.985C166.002 98.7574 164.831 96.8675 162.971 95.585C161.456 94.5725 159.734 94.0326 158.012 94.0326ZM486.985 236.252L483.748 227.949C480.304 227.544 476.86 226.802 473.623 225.654L467.01 231.729L449.101 219.242L452.821 211.142C450.685 208.51 448.826 205.607 447.31 202.502L438.287 202.232L434.636 180.97L443.108 177.798C443.522 174.423 444.279 171.048 445.45 167.876L439.251 161.396L451.994 143.846L460.26 147.491C462.946 145.399 465.908 143.576 469.076 142.091L469.352 133.249L491.049 129.672L494.287 137.974C497.731 138.379 501.175 139.121 504.412 140.269L511.025 134.194L528.934 146.681L525.214 154.781C527.349 157.414 529.209 160.316 530.724 163.421L539.748 163.691L543.398 184.953L534.926 188.125C534.513 191.5 533.755 194.875 532.584 198.048L538.784 204.527L526.041 222.077L517.775 218.432C515.089 220.524 512.127 222.347 508.958 223.832L508.683 232.674L486.985 236.252ZM472.658 221.334L473.76 221.739C477.411 223.089 481.268 223.967 485.194 224.304L486.434 224.439L489.396 231.999L504.825 229.434L505.101 221.334L506.203 220.862C509.785 219.309 513.16 217.217 516.191 214.72L517.086 213.977L524.663 217.285L533.755 204.797L528.107 198.857L528.52 197.778C529.898 194.2 530.793 190.42 531.138 186.573L531.207 185.358L538.921 182.455L536.304 167.336L528.038 167.066L527.556 165.986C525.972 162.476 523.836 159.168 521.288 156.199L520.53 155.321L523.905 147.896L511.162 138.986L505.101 144.521L503.999 144.116C500.348 142.766 496.491 141.889 492.565 141.551L491.325 141.484L488.363 133.924L472.934 136.489L472.658 144.589L471.556 145.061C467.974 146.614 464.599 148.706 461.568 151.204L460.673 151.946L453.096 148.639L444.142 161.126L449.79 167.066L449.377 168.146C447.999 171.723 447.104 175.503 446.759 179.35L446.69 180.565L438.976 183.468L441.593 198.587L449.859 198.857L450.341 199.937C451.925 203.447 454.06 206.755 456.609 209.725L457.367 210.602L453.992 218.027L466.734 226.937L472.658 221.334ZM488.914 207.43C483.886 207.43 478.857 205.945 474.449 202.907C463.222 195.078 460.604 179.755 468.594 168.753C476.584 157.751 492.22 155.186 503.448 163.016C514.675 170.846 517.293 186.168 509.303 197.17C504.412 203.852 496.698 207.43 488.914 207.43ZM488.983 162.273C482.37 162.273 475.827 165.311 471.763 170.981C468.456 175.503 467.217 180.97 468.112 186.438C469.076 191.905 472.107 196.63 476.722 199.87C486.228 206.485 499.453 204.325 506.203 195.01C509.44 190.488 510.749 185.02 509.854 179.553C508.889 174.086 505.859 169.361 501.244 166.121C497.455 163.488 493.185 162.273 488.983 162.273ZM151.606 388.123C148.3 379.011 144.511 368.751 148.713 358.221C154.361 344.046 142.376 336.757 131.837 330.209C122.745 324.674 114.204 319.41 117.097 310.702C120.265 301.252 120.059 293.963 116.477 289.17C113.446 285.12 108.074 282.96 100.91 283.028C95.1929 283.095 90.0957 276.211 84.6542 268.988C78.2483 260.483 71.7046 251.709 63.439 253.666C61.9925 254.004 60.8215 254.814 60.1327 256.096C57.2397 261.428 61.7858 274.118 66.6763 287.618C71.9113 302.197 77.9039 318.667 73.9777 325.687C69.7071 333.382 77.4217 340.402 85.6185 347.894C94.2974 355.791 104.147 364.768 101.53 376.041C99.0502 386.57 98.4991 390.485 100.015 392.78C101.185 394.603 103.596 395.008 107.247 395.683C109.727 396.155 112.895 396.695 116.753 397.91C133.353 402.972 138.174 413.502 138.243 413.637L138.45 414.11L138.932 414.042C146.922 412.827 151.606 410.6 153.81 407.022C153.948 406.82 154.017 406.617 154.155 406.415C156.497 401.623 154.223 395.345 151.606 388.123Z" fill="#7AC9F0"/>
<path d="M109.176 368.008C111.931 372.193 113.928 375.838 113.722 380.968C113.584 385.76 112.826 390.485 112.413 395.21C112.344 396.222 112.275 397.167 112.206 398.112C110.829 396.965 109.52 395.817 108.142 394.67C107.523 394.602 106.903 394.602 106.214 394.602C108.142 396.155 110.14 397.842 112.069 399.53C111.862 402.837 111.793 406.145 111.793 409.452C111.793 411.409 111.724 413.502 111.862 415.459C110.071 414.379 108.211 413.299 106.489 412.219C101.117 408.979 96.0884 405.942 92.2311 404.322C89.2692 403.107 85.9629 402.027 82.7944 401.015C74.5288 398.382 66.0565 395.682 63.2324 389.945C61.7859 386.975 61.9236 383.398 63.6456 379.078C67.9851 367.94 63.9212 366.05 57.102 362.811C52.1426 360.448 45.3923 357.276 38.642 349.243C35.6801 345.734 33.0627 342.696 30.7207 340.064C23.7638 332.031 19.9065 327.644 20.3887 325.079C20.5264 324.472 20.8708 323.932 21.5596 323.392C21.904 323.122 22.3173 322.852 22.8684 322.582C25.4858 321.164 28.1033 322.244 31.0651 323.459C35.0602 325.079 39.9507 327.171 46.7699 323.729C52.1426 321.029 58.1352 318.532 61.717 320.557C64.1967 321.907 65.6432 325.417 66.1253 331.154C66.2631 332.976 66.883 334.259 67.9162 335.001C69.4316 336.081 71.7735 335.946 74.4599 335.406C76.3197 337.904 78.7305 339.119 81.6235 340.131C85.6874 341.549 88.7181 342.831 91.68 346.071C98.017 353.091 104.147 360.246 109.176 368.008Z" fill="#90E3FF"/>
<path d="M87.203 379.146C83.0701 376.446 79.4884 369.898 76.0443 363.554C71.3605 354.914 66.4699 346.004 59.7885 346.206C49.0432 346.476 39.4688 334.057 39.331 333.989L38.4355 334.664C38.8488 335.204 48.4921 347.624 59.7885 347.354C65.7811 347.219 70.5339 355.791 75.0111 364.161C78.524 370.573 82.1747 377.256 86.5142 380.158C89.1316 381.846 93.9533 385.288 99.6703 389.675V388.258C94.6421 384.141 90.1648 381.036 87.203 379.146Z" fill="#389BBC"/>
<path d="M450.203 462.776C450.203 462.776 456.403 447.656 445.106 426.191C433.741 404.727 424.58 408.034 451.925 391.497C479.271 374.96 452.063 322.987 475.345 316.372C498.626 309.757 518.808 225.586 536.511 236.319C554.213 247.051 530.587 288.292 543.261 300.712C555.866 313.132 557.588 328.859 531.482 341.616C505.377 354.373 550.011 403.107 514.607 417.957C479.202 432.806 489.396 491.057 450.203 462.776Z" fill="#389BBC"/>
<path d="M461.018 478.773C460.949 478.57 457.16 459.266 469.214 434.292C481.475 408.845 487.33 381.035 484.919 359.841C483.61 348.366 491.118 343.911 498.351 339.591C505.514 335.339 512.885 330.884 512.471 319.612C512.127 309.42 516.535 285.525 516.673 284.513L518.257 284.783C518.188 285.053 513.711 309.555 514.056 319.544C514.469 331.762 506.685 336.419 499.177 340.874C492.014 345.126 485.332 349.176 486.503 359.638C488.983 381.035 483.059 409.182 470.661 434.899C458.882 459.401 462.533 478.233 462.602 478.435L461.018 478.773Z" fill="#98D2E5"/>
<path d="M555.039 353.361C564.889 348.771 575.359 350.864 569.918 360.516C564.476 370.168 556.348 370.911 557.863 378.538C559.379 386.165 563.374 394.468 550.562 399.327C537.75 404.12 531.758 403.31 523.974 417.417C516.122 431.524 513.436 441.986 500.004 438.611C486.572 435.169 497.731 417.822 504.688 410.532C504.688 410.532 514.124 402.702 513.987 388.595C513.849 374.488 507.925 365.038 526.523 365.983C545.121 366.793 548.358 356.466 555.039 353.361Z" fill="#7AC9F0"/>
<path d="M497.869 448.466C498.42 446.644 511.369 402.972 521.977 398.248C532.791 393.388 538.646 380.698 541.194 373.611C544.501 364.363 558.621 362.541 559.172 362.473L559.379 364.026C559.241 364.026 545.672 365.781 542.71 374.083C539.541 383.06 533.48 394.805 522.666 399.665C512.747 404.12 499.591 448.466 499.453 448.939L497.869 448.466ZM156.703 413.3C135.488 408.102 135.213 396.898 134.937 386.098C134.73 377.256 134.524 368.886 123.021 363.756C107.798 356.939 107.454 344.316 107.109 333.179C106.834 324.877 106.627 317.047 100.29 312.795C85.0675 302.602 72.1868 277.898 72.0491 277.628L73.22 277.021C73.3578 277.291 86.0318 301.657 101.048 311.715C107.936 316.305 108.211 324.472 108.418 333.112C108.762 344.384 109.107 356.129 123.572 362.541C135.764 368.008 136.039 377.188 136.246 386.03C136.521 396.83 136.797 407.09 157.048 412.017L156.703 413.3Z" fill="#389BBC"/>
<path d="M128.118 403.31H476.585V156.806C476.585 153.296 473.692 150.394 470.041 150.394H134.662C131.08 150.394 128.118 153.228 128.118 156.806V403.31Z" fill="#F7F7F7"/>
<path d="M463.614 357.353L140.427 357.353V162.755L463.614 162.755V357.353Z" fill="#389BBC" stroke="#7AC9F0" stroke-width="0.5" stroke-miterlimit="10"/>
<path d="M476.585 366.793H128.256L90.0958 506.447H514.676L476.585 366.793Z" fill="#F2F2F2"/>
<path d="M141.412 391.295H162.834C163.729 391.295 164.418 391.97 164.211 392.712L162.145 401.825C162.007 402.365 161.456 402.77 160.767 402.77H139.001C138.105 402.77 137.417 402.095 137.623 401.285L140.034 392.172C140.172 391.7 140.723 391.295 141.412 391.295ZM172.615 391.295H188.802L186.666 402.837H170.135L172.615 391.295ZM196.861 391.295H213.048L211.394 402.837H194.863L196.861 391.295ZM221.175 391.295H237.362L236.122 402.837H219.591L221.175 391.295ZM245.421 391.295H261.608L260.851 402.837H244.319L245.421 391.295ZM269.667 391.295H285.854L285.579 402.837H269.047L269.667 391.295ZM463.91 391.295H439.596L442.213 402.837H466.941L463.91 391.295ZM431.537 391.295H415.35L417.485 402.837H434.016L431.537 391.295ZM407.291 391.295H391.104L392.757 402.837H409.288L407.291 391.295ZM382.976 391.295H366.789L368.029 402.837H384.56L382.976 391.295ZM358.73 391.295H342.543L343.301 402.837H359.832L358.73 391.295ZM334.484 391.295H318.297L318.572 402.837H335.104L334.484 391.295ZM293.982 391.295H310.169L310.376 402.837H293.982V391.295ZM134.317 411.409H168.069L166.14 423.289H131.7L134.317 411.409ZM469.145 411.409H427.404L429.746 423.289H472.383L469.145 411.409ZM419 411.409H402.331L404.191 423.289H421.273L419 411.409ZM393.928 411.409H377.259L378.636 423.289H395.719L393.928 411.409ZM368.855 411.409H352.186L353.151 423.289H370.164L368.855 411.409ZM343.783 411.409H327.114L327.596 423.289H344.609L343.783 411.409ZM129.22 432.536H163.798L161.249 444.349H126.051L129.22 432.536ZM172.408 432.536H189.697L187.699 444.349H170.066L172.408 432.536ZM198.376 432.536H327.94L328.422 444.349H196.447L198.376 432.536ZM336.619 432.536H353.908L354.873 444.349H337.239L336.619 432.536ZM362.518 432.536H379.807L381.254 444.349H363.62L362.518 432.536ZM388.486 432.536H405.775L407.635 444.349H390.07L388.486 432.536ZM414.385 432.536H431.674L434.016 444.349H416.452L414.385 432.536ZM440.284 432.536H474.862L478.031 444.349H442.833L440.284 432.536ZM318.779 411.409H302.179V423.289H319.055L318.779 411.409ZM293.707 411.409H276.969L276.486 423.289H293.569L293.707 411.409ZM268.634 411.409H251.896L250.932 423.289H268.014L268.634 411.409ZM243.562 411.409H226.824L225.377 423.289H242.46L243.562 411.409ZM218.489 411.409H201.751L199.822 423.289H216.905L218.489 411.409ZM193.417 411.409H176.679L174.337 423.289H191.35L193.417 411.409ZM142.169 384.073L144.925 373.813H152.777L150.228 384.073H142.169ZM160.629 373.813H176.334L174.199 384.073H158.15L160.629 373.813ZM184.255 373.813H199.96L198.169 384.073H182.189L184.255 373.813ZM207.813 373.813H223.517L222.14 384.073H206.159L207.813 373.813ZM231.37 373.813H247.074L246.11 384.073H230.13L231.37 373.813ZM254.927 373.813H270.632L270.081 384.073H254.1L254.927 373.813ZM278.484 373.813H294.189L294.051 384.073H278.071L278.484 373.813ZM302.041 373.813H317.746L318.021 384.073H302.041V373.813ZM325.598 373.813H341.303L341.992 384.073H326.012L325.598 373.813ZM349.155 373.813H364.929L365.962 384.073H349.982L349.155 373.813ZM372.781 373.813H388.486L390.002 384.073H374.021L372.781 373.813ZM396.339 373.813H412.043L413.972 384.073H397.992L396.339 373.813ZM419.896 373.813H435.601L437.942 384.073H421.962L419.896 373.813ZM443.453 373.813H459.158L461.913 384.073H445.933L443.453 373.813Z" fill="#389BBC" stroke="#98D2E5" stroke-width="0.5" stroke-miterlimit="10"/>
<path d="M503.586 517.315H101.186C95.0552 517.315 90.0958 512.455 90.0958 506.448H514.676C514.676 512.455 509.716 517.315 503.586 517.315ZM351.773 461.291C351.36 458.861 349.156 457.039 346.676 457.039H258.164C255.616 457.039 253.48 458.861 253.067 461.291L247.557 494.028C247.006 497.133 249.485 499.968 252.654 499.968H352.117C355.355 499.968 357.766 497.133 357.215 494.028L351.773 461.291Z" fill="#D3D3D3"/>
<path d="M162.214 179.282H198.238V182.927H162.214V179.282ZM208.364 206.484H234.332V210.129H208.364V206.484ZM238.396 206.484H255.616V210.129H238.396V206.484ZM162.627 274.928H179.847V278.573H162.627V274.928ZM259.06 206.484H300.732V210.129H259.06V206.484ZM162.627 261.225H189.422V264.87H162.627V261.225ZM199.96 288.495H216.285V292.14H199.96V288.495ZM162.627 288.495H195.001V292.14H162.627V288.495ZM162.627 302.129H180.467V305.774H162.627V302.129ZM205.264 179.282H230.819V182.927H205.264V179.282ZM205.264 220.119H230.819V223.764H205.264V220.119ZM192.452 233.686H203.404V237.331H192.452V233.686ZM181.569 247.523H206.091V251.168H181.569V247.523ZM209.81 247.523H243.699V251.168H209.81V247.523ZM162.627 233.821H188.182V237.466H162.627V233.821ZM162.627 247.523H177.781V251.168H162.627V247.523ZM208.57 233.821H222.897V237.466H208.57V233.821ZM163.109 315.697H177.436V319.342H163.109V315.697ZM162.558 206.484H188.113V210.129H162.558V206.484ZM185.151 274.928H210.706V278.573H185.151V274.928ZM185.495 302.129H211.05V305.774H185.495V302.129ZM230.888 302.129H256.442V305.774H230.888V302.129ZM162.558 220.119H198.996V223.764H162.558V220.119ZM333.313 179.282H358.868V182.927H333.313V179.282ZM242.253 315.697H267.808V319.342H242.253V315.697ZM366.789 179.282H383.871V182.927H366.789V179.282ZM424.717 192.917H441.8V196.562H424.717V192.917ZM237.707 179.282H270.287V182.927H237.707V179.282ZM364.585 192.917H397.165V196.562H364.585V192.917ZM324.634 206.484H357.215V210.129H324.634V206.484ZM282.273 220.119H314.853V223.764H282.273V220.119ZM361.278 206.484H384.422V210.129H361.278V206.484ZM294.327 179.282H326.907V182.927H294.327V179.282ZM257.2 220.119H276.28V223.764H257.2V220.119ZM242.253 275.13H261.333V278.775H242.253V275.13ZM276.28 179.282H288.196V182.927H276.28V179.282ZM237.707 220.119H249.623V223.764H237.707V220.119ZM405.018 192.917H416.934V196.562H405.018V192.917ZM162.214 192.917H180.88V196.562H162.214V192.917ZM212.014 261.293H226.755V264.938H212.014V261.293ZM185.495 192.917H191.488V196.562H185.495V192.917ZM309.067 192.917H358.868V196.562H309.067V192.917ZM261.333 302.129H311.133V305.774H261.333V302.129ZM195.896 192.917H202.027V196.562H195.896V192.917ZM288.196 192.917H304.452V196.562H288.196V192.917ZM304.521 206.484H320.777V210.129H304.521V206.484ZM220.762 315.697H237.018V319.342H220.762V315.697ZM249.279 192.917H283.926V196.562H249.279V192.917ZM216.974 275.13H237.225V278.775H216.974V275.13ZM215.734 302.129H225.859V305.774H215.734V302.129ZM232.403 192.917H244.319V196.562H232.403V192.917ZM192.315 206.484H204.231V210.129H192.315V206.484ZM194.656 261.293H206.573V264.938H194.656V261.293ZM207.124 192.917H227.926V196.562H207.124V192.917Z" fill="#F7F7F7"/>
<path d="M381.529 220.254C381.529 220.254 387.591 230.311 390.139 231.931C393.583 234.159 391.448 236.386 389.795 236.454C388.142 236.454 379.739 237.061 377.879 234.969C376.019 232.876 375.124 226.734 373.401 225.114C371.679 223.494 369.889 217.082 374.228 215.529C378.016 214.112 381.529 220.254 381.529 220.254Z" fill="#98D2E5"/>
<path d="M378.843 215.867C378.843 215.867 385.8 227.679 386.971 229.367C388.142 231.122 384.698 231.122 382.563 230.312C380.427 229.502 375.055 221.064 374.297 219.512C373.401 217.689 374.159 215.597 374.159 215.597L378.843 215.867Z" fill="#FFF1CA"/>
<path d="M371.817 222.144L373.47 234.227L374.297 234.294L374.021 225.587L371.817 222.144ZM321.397 220.254C321.397 220.254 327.458 230.312 330.007 231.932C333.451 234.159 331.315 236.387 329.662 236.454C328.009 236.454 319.606 237.062 317.746 234.969C315.886 232.877 314.991 226.734 313.269 225.114C311.547 223.494 309.687 216.88 314.095 215.53C317.953 214.315 321.397 220.254 321.397 220.254Z" fill="#98D2E5"/>
<path d="M319.124 215.867C319.124 215.867 325.667 227.612 326.907 229.367C328.078 231.122 324.634 231.122 322.499 230.312C320.363 229.502 314.991 221.064 314.233 219.512C313.338 217.689 314.095 215.597 314.095 215.597L319.124 215.867Z" fill="#FFF1CA"/>
<path d="M311.753 222.144L313.338 234.226L314.233 234.294L313.957 225.586L311.753 222.144Z" fill="#98D2E5"/>
<path d="M294.533 128.659L349.362 153.161C349.362 153.161 355.492 155.119 356.181 161.801C358.317 182.59 374.159 215.53 374.159 215.53C379.256 217.959 378.843 215.867 378.843 215.867C375.606 205.742 371.748 164.163 370.302 147.491C370.026 143.981 369.82 141.551 369.751 140.741C369.751 140.201 369.131 139.526 368.098 138.716C360.59 132.709 329.593 120.357 329.593 120.357C306.518 119.749 294.533 128.659 294.533 128.659Z" fill="#FFF1CA"/>
<path d="M284.201 139.189C285.923 153.701 307.069 152.081 307.069 152.081H332.693C332.693 152.081 325.943 166.796 323.325 179.148C320.57 192.31 314.026 215.529 314.026 215.529C314.026 215.529 314.44 216.339 319.124 215.867C319.124 215.867 339.237 176.583 346.951 166.661C348.604 164.568 353.357 152.958 354.184 146.074C354.459 143.779 354.322 141.956 353.426 141.214C352.531 140.471 350.464 139.121 347.778 137.434C339.719 132.439 325.805 124.812 318.022 123.124C307.621 120.829 291.158 116.509 291.158 116.509C291.158 116.509 282.479 124.677 284.201 139.189Z" fill="#FFF1CA"/>
<path d="M301.628 27.2766C301.628 27.2766 297.771 20.1217 299.63 12.5619C301.49 4.9346 308.723 -2.62521 319.261 0.884701C329.8 4.39461 338.341 12.3594 332.004 21.6742C325.667 30.9215 337.721 35.1739 334.622 39.5613C331.522 43.9486 332.693 48.606 334.002 49.6185C335.31 50.631 339.512 54.2759 339.03 58.6633C338.548 62.9832 318.573 46.0411 318.573 46.0411C318.573 46.0411 307.758 24.5091 301.628 27.2766Z" fill="#389BBC"/>
<path d="M333.795 118.534C333.795 118.534 332.211 126.094 291.227 116.577C291.227 116.577 304.934 112.122 333.795 118.534Z" fill="#59EA35"/>
<path d="M290.745 118.67C290.125 119.884 289.505 121.032 288.816 122.247C303.763 122.652 318.779 123.124 333.726 123.529C331.384 115.767 332.142 105.237 332.555 97.2725C333.037 87.4853 338.548 80.7354 337.997 70.8807C340.959 71.3532 341.441 71.4207 344.403 71.8931C339.857 59.2035 338.341 52.9261 324.221 48.0662C319.606 46.4463 316.644 46.1763 311.685 46.5813C295.36 47.9312 290.469 48.0662 282.41 62.5784C294.947 64.5358 292.88 68.9232 296.669 81.2079C298.528 87.1478 300.457 93.8301 299.493 100.107C298.528 106.25 290.745 113.067 290.745 118.67Z" fill="#98D2E5"/>
<path d="M316.782 51.1036C310.1 49.8886 311.547 46.2437 311.547 46.2437C311.547 46.2437 311.822 44.2188 311.96 41.5864C311.96 40.9114 312.029 40.2364 312.029 39.4939C312.029 38.4139 311.96 37.334 311.822 36.254C311.271 31.8666 323.945 34.499 323.945 34.499C323.945 34.499 323.188 43.4088 324.978 46.0412C326.7 48.7412 323.463 52.3861 316.782 51.1036Z" fill="#FFF1CA"/>
<path d="M304.039 46.2437C304.039 46.2437 317.539 61.4984 322.499 65.0083C322.499 65.0083 328.216 59.9459 324.703 46.5812C324.703 46.5812 318.228 43.3413 304.039 46.2437ZM304.452 9.52464C304.452 9.52464 297.426 22.7543 304.383 35.2415C311.34 47.7287 324.978 29.7741 325.805 27.6817C326.7 25.5893 331.384 13.642 322.085 10.0646C312.787 6.41972 306.45 5.94723 304.452 9.52464Z" fill="#FFF1CA"/>
<path d="M317.953 36.5913C317.953 36.5913 316.713 39.2237 311.96 41.5862C311.96 40.9112 312.029 40.2362 312.029 39.4937C312.029 39.4937 315.266 39.1562 317.953 36.5913Z" fill="#389BBC"/>
<path d="M247.212 106.79C247.212 106.79 243.906 108.207 242.322 107.6C240.738 106.925 238.327 106.79 237.569 106.79C236.536 106.79 233.298 105.642 233.367 106.925C233.436 108.14 238.602 109.017 239.635 109.422C240.669 109.827 236.467 112.054 236.054 113.067C235.64 114.079 240.462 120.694 243.148 118.804C245.835 116.914 247.281 113.134 247.832 112.864C248.383 112.594 249.83 111.582 249.83 111.582L247.212 106.79Z" fill="#FFF1CA"/>
<path d="M236.605 112.459C236.605 112.459 228.821 118.804 228.683 119.682C228.546 120.559 228.959 120.964 229.717 120.357C230.474 119.817 237.431 114.417 237.431 114.417C237.431 114.417 229.648 123.462 229.372 124.137C229.234 124.542 229.992 125.352 230.405 125.082C230.819 124.812 239.153 116.307 239.153 116.307C239.153 116.307 231.852 124.744 231.852 125.419C231.783 125.959 232.678 126.567 233.298 125.959C233.918 125.352 241.151 117.927 241.151 117.927C241.151 117.927 236.26 124.407 236.605 125.014C236.811 125.352 237.431 126.094 238.602 124.407C239.773 122.719 243.079 118.939 243.079 118.939L236.605 112.459Z" fill="#FFF1CA"/>
<path d="M330.007 152.013H307.069C307.069 152.013 285.923 153.701 284.201 139.121C282.479 124.609 291.158 116.509 291.158 116.509C291.158 116.509 302.317 119.412 312.098 121.707C316.988 120.694 322.843 120.019 329.731 120.222C329.731 120.222 371.059 133.586 369.82 140.674C369.82 140.741 352.531 131.696 330.007 152.013Z" fill="#389BBC"/>
<path d="M315.06 126.904L358.868 126.229L336.757 137.231L315.06 126.904Z" fill="#F2F2F2"/>
<path d="M328.698 121.369C328.698 121.369 318.848 125.082 306.794 121.707L306.243 117.32L331.109 118.67L328.698 121.369Z" fill="#7AC9F0"/>
<path d="M336.757 137.231L315.06 128.996V126.904L338.479 135.139L336.757 137.231Z" fill="#D3D3D3"/>
<path d="M328.491 123.462C328.354 125.014 330.007 126.162 331.522 125.554L334.071 124.474C334.828 124.137 335.311 123.394 335.173 122.584C334.14 116.104 331.866 90.86 335.173 86.4726C336.413 84.8526 337.17 83.4352 337.584 82.2202C339.788 87.755 342.474 94.9099 343.576 98.7573L364.24 125.757L371.197 127.512C362.518 107.06 355.561 96.2598 355.561 96.2598C354.184 92.6824 350.326 81.8827 346.882 72.2979C344.678 66.2231 342.75 60.6207 341.648 57.6508C341.096 56.0983 340.063 54.8159 338.617 54.0059C335.379 52.1159 330.076 49.146 325.254 46.851H325.185C325.047 46.7835 324.91 46.716 324.703 46.6486C333.933 60.2157 330.351 98.7573 328.491 123.462C328.491 123.394 328.491 123.394 328.491 123.462ZM294.327 47.7285C291.365 48.201 284.063 55.1533 280.206 62.1732C275.798 70.2055 271.252 79.3177 267.876 82.2877C261.677 87.8225 244.25 107.33 243.424 106.857C243.079 106.655 248.177 112.662 248.865 112.932C249.21 113.067 277.451 89.0375 280.206 85.3926C282.755 81.9502 289.643 67.3705 291.709 67.708C291.847 68.0455 294.395 73.3779 296.737 81.1402C296.806 81.2752 296.806 81.4102 296.875 81.5452C298.528 86.9451 298.391 92.8849 297.495 99.4998C296.806 104.495 293.018 112.662 290.745 116.644C290.469 117.117 290.538 118.062 290.814 118.737C291.02 119.142 291.227 119.479 291.571 119.614L299.906 122.652L301.835 123.327C303.212 123.867 304.728 123.597 305.83 122.787C306.725 122.179 307.414 121.167 307.552 119.952C309.411 106.047 311.753 91.8049 313.613 86.4726C321.81 62.9831 310.445 45.2986 310.445 45.2986C310.445 45.2986 296.944 46.7835 294.327 47.7285Z" fill="#7AC9F0"/>
<path d="M336.757 137.231L349.775 102.402L391.724 103.077L379.325 135.207L336.757 137.231Z" fill="#7AC9F0"/>
<path d="M363.207 117.792C361.898 120.289 362.312 123.057 364.103 123.867C365.894 124.744 368.304 123.394 369.613 120.897C370.922 118.399 370.509 115.632 368.718 114.822C366.927 113.944 364.447 115.294 363.207 117.792Z" fill="#F0F1F2"/>
<path d="M337.721 51.9811C334.622 47.3912 332.418 43.7463 332.142 37.199C331.935 32.8791 330.971 27.0067 327.94 24.1043C331.109 16.0045 327.389 13.5745 325.874 10.9421C324.014 7.63469 310.238 -0.33011 304.796 8.03968C299.355 16.342 301.284 25.0493 301.284 25.0493C301.835 20.4594 306.656 14.2495 306.656 14.2495C307.414 19.0419 317.539 26.8717 321.948 30.0441C321.879 30.1116 321.81 30.2466 321.81 30.3141C319.33 33.824 322.43 37.334 322.981 41.0464C323.532 44.7588 312.58 54.7485 324.772 59.7434C336.964 64.8058 340.821 56.5035 337.721 51.9811ZM115.995 445.159C115.995 445.159 115.719 447.994 102.219 447.994C88.7182 447.994 69.0873 444.551 69.0873 444.551L100.428 441.581C100.428 441.581 112.482 440.974 115.995 445.159Z" fill="#389BBC"/>
<path d="M81.6236 446.171C73.9778 446.171 70.7404 450.019 67.7097 451.234C64.6789 452.449 61.6482 454.271 61.6482 454.204C63.3702 450.896 65.781 450.829 67.0209 449.749C68.2607 448.669 67.9163 449.209 65.23 449.006C63.7146 448.871 60.9594 451.639 59.0307 453.191C57.3087 454.474 56.2755 454.609 56.2755 454.609C56.2755 454.609 58.273 451.841 60.7527 449.614C63.7835 446.914 67.5719 444.686 68.4674 444.281C70.1205 443.606 75.2177 443.471 78.7995 443.944C82.9323 444.484 87.134 446.171 81.6236 446.171Z" fill="#0E8C30"/>
<path d="M68.9495 444.416C68.9495 444.416 63.0947 445.901 62.0615 446.711C61.3727 447.251 58.3419 450.424 58.3419 450.424C58.3419 450.424 60.5461 450.086 61.7859 448.871C63.0947 447.589 68.9495 444.416 68.9495 444.416ZM104.905 439.354C104.905 439.354 119.646 440.299 118.612 449.209C118.061 454.271 114.686 456.026 110.209 455.621C101.943 454.946 92.5756 453.731 92.5756 453.731L88.3738 439.894L104.905 439.354Z" fill="#7AC9F0"/>
<path d="M108.005 440.569L122.47 394.872C122.47 394.872 124.605 388.19 128.118 389.405C133.146 391.228 130.666 396.695 130.253 399.935C129.358 406.55 129.978 409.452 125.294 425.382C122.401 435.236 119.921 446.576 117.441 453.056C115.719 457.511 112.757 451.099 108.28 449.344C99.8768 446.036 108.005 440.569 108.005 440.569ZM109.107 370.033C111.931 377.998 120.679 382.115 128.738 379.213C136.728 376.31 140.998 367.468 138.174 359.503C135.35 351.539 126.602 347.421 118.543 350.324C110.553 353.226 106.283 362.068 109.107 370.033Z" fill="#389BBC"/>
<path d="M93.2642 370.776C97.6726 377.255 106.489 378.875 112.895 374.42L112 366.793C118.406 362.271 119.99 353.361 115.581 346.881L112.551 342.494C108.142 336.014 99.3257 334.394 92.9198 338.849L90.0268 340.874C83.6209 345.396 82.0367 354.306 86.445 360.786L93.2642 370.776Z" fill="#389BBC"/>
<path d="M87.4784 349.513C88.2361 350.593 89.0626 351.606 90.027 352.618C96.364 359.368 104.836 361.933 110.209 359.166C112.689 362.473 115.513 365.106 118.061 367.131C121.023 369.493 128.6 370.438 128.6 370.438C133.008 375.163 116.477 402.77 115.306 402.635C112.895 402.432 109.796 387.178 112.069 381.643C113.102 379.145 114.755 376.175 114.273 374.825C112.551 370.168 110.14 370.978 110.14 370.978C110.14 370.978 106.972 374.623 104.492 374.488C101.943 374.285 97.5349 370.37 97.3283 370.303C96.5706 369.695 95.8818 368.953 95.2619 368.075L88.6493 358.356C86.9273 355.656 86.5141 352.416 87.4784 349.513Z" fill="#FFF1CA"/>
<path d="M138.037 465.813C138.037 465.813 132.664 472.158 131.011 472.833C128.807 473.778 122.056 471.753 122.056 471.753C122.056 471.753 120.265 442.661 118.199 431.322C116.133 419.982 113.102 417.012 112.964 413.435C112.757 407.697 107.867 405.402 108.693 400.948C109.52 396.493 110.967 380.563 111.449 382.655C115.65 400.745 120.816 385.693 121.987 383.33C122.607 382.048 138.037 465.813 138.037 465.813Z" fill="#F0F1F2"/>
<path d="M113.584 377.256C113.584 377.256 107.04 384.275 107.522 387.043C107.936 389.81 104.698 398.45 107.936 410.465C111.586 424.167 113.515 433.482 114.204 442.459C114.893 451.436 111.793 459.671 113.033 470.673C113.997 479.313 115.995 479.786 115.995 479.786C115.995 479.786 119.921 480.73 122.676 477.356C125.431 474.048 121.299 444.619 119.921 437.329C118.543 429.972 114.135 412.827 112.964 407.765C111.518 401.555 111.793 395.21 111.862 393.388C112.206 386.975 113.033 382.993 113.722 380.563C113.791 380.225 114.135 376.446 113.584 377.256ZM125.018 385.49C128.6 395.615 139.759 400.812 149.953 397.1C160.147 393.388 165.52 382.183 161.938 372.058C158.356 361.933 147.198 356.736 137.003 360.448C126.809 364.093 121.436 375.366 125.018 385.49Z" fill="#389BBC"/>
<path d="M89.958 559.501L93.6087 588.053L77.7661 595.41L69.0183 597.3L84.5853 585.488L79.4882 559.703L89.958 559.501Z" fill="#FCE5A2"/>
<path d="M94.642 592.373L91.1979 593.25L88.856 591.158L76.182 597.368L64.9545 600C64.9545 600 64.8167 599.122 65.1611 598.65C66.5387 596.828 74.46 592.845 74.46 592.845C74.46 592.845 74.5977 595.478 75.6998 595.545C76.8019 595.613 86.5141 590.618 88.7871 589.268C92.6444 586.905 93.4021 585.353 93.6777 585.555C94.5042 585.96 94.642 592.373 94.642 592.373Z" fill="#7AC9F0"/>
<path d="M51.7293 519.812L39.1241 544.111L21.7662 543.301L13.0873 540.804L32.305 537.632L42.7748 516.842L51.7293 519.812Z" fill="#FCE5A2"/>
<path d="M38.091 548.431L34.647 547.621L33.5449 544.651L17.909 544.449L8.61011 542.289C8.61011 542.289 9.7122 541.074 10.401 540.736C12.4674 539.859 19.8376 539.454 19.8376 539.454C19.8376 539.454 19.08 541.546 20.0443 542.086C21.0086 542.694 31.754 543.031 34.3714 542.829C38.9175 542.491 40.2263 541.546 40.364 541.816C40.8462 542.761 38.091 548.431 38.091 548.431Z" fill="#7AC9F0"/>
<path d="M143.685 447.116L134.317 451.234L134.386 463.856L69.8449 453.529C69.8449 453.529 63.7146 451.571 59.7884 461.493C54.209 475.533 40.0197 519.204 40.0197 519.204L48.9741 528.722L77.1463 479.38C77.1463 479.38 134.868 506.852 153.879 500.912C161.181 498.617 166.76 485.523 165.727 472.293C164.9 461.898 162.834 452.381 162.834 452.381L143.685 447.116Z" fill="#389BBC"/>
<path d="M135.488 500.642L89.2693 497.268L93.2644 569.626L79.626 570.098L69.5695 485.32C69.5695 485.32 72.2558 472.698 81.0725 474.588C89.9581 476.546 111.311 493.15 135.488 500.642Z" fill="#389BBC"/>
<path d="M166.622 518.8C166.622 518.8 142.376 492.138 136.108 477.086C128.6 459.064 129.22 436.452 127.842 428.959C125.294 415.19 122.194 388.46 121.643 385.153C121.023 381.845 123.158 378.133 123.158 378.133C123.158 378.133 121.574 368.143 126.12 369.223C132.664 370.776 139.139 374.286 141.412 375.366C145.682 377.256 154.43 427.609 154.912 430.039C156.703 438.814 163.247 446.779 167.931 454.946C178.952 474.318 181.776 497.2 181.776 497.2C181.776 497.2 180.398 513.94 166.622 518.8Z" fill="#7AC9F0"/>
<path d="M141.618 449.074C141.618 449.074 141.412 452.314 125.983 451.571C110.553 450.761 87.9604 445.699 87.9604 445.699L123.709 444.079C123.709 444.079 137.417 444.146 141.618 449.074Z" fill="#FFF1CA"/>
<path d="M100.083 447.454C92.7131 447.319 89.5446 451.031 86.6516 452.178C83.7586 453.326 80.7968 455.013 80.7968 455.013C82.4499 451.841 84.7919 451.773 86.0317 450.761C87.2027 449.749 86.9271 450.289 84.3097 450.019C82.7943 449.884 80.1768 452.516 78.3171 454.001C76.6639 455.283 75.6307 455.351 75.6307 455.351C75.6307 455.351 77.5594 452.651 79.9702 450.491C82.9321 447.926 86.5139 445.766 87.4093 445.429C88.9936 444.821 93.8841 444.754 97.397 445.294C101.323 445.834 105.387 447.589 100.083 447.454Z" fill="#FFF1CA"/>
<path d="M87.7538 445.496C87.7538 445.496 82.1056 446.846 81.1412 447.589C80.4524 448.129 77.5594 451.166 77.5594 451.166C77.5594 451.166 79.6259 450.828 80.8657 449.681C82.1056 448.601 87.7538 445.496 87.7538 445.496Z" fill="#FFF1CA"/>
<path d="M129.289 445.496L152.157 433.684C152.157 433.684 152.226 447.994 152.364 453.461C152.502 458.928 154.844 466.623 150.435 467.771C146.027 468.918 143.754 468.311 148.3 470.943C152.846 473.508 151.813 476.208 150.091 478.435C148.369 480.663 155.877 503.342 154.086 504.625C146.991 495.85 139.345 484.983 136.039 477.086C131.837 466.826 130.184 455.081 129.289 445.496Z" fill="#90E3FF"/>
<path d="M136.659 439.759L135.763 394.13C135.763 394.13 135.832 379.888 136.108 375.703C136.383 371.383 143.891 376.445 143.891 376.445C143.891 376.445 154.43 390.418 154.637 424.099C154.775 446.644 153.535 458.388 142.927 457.443C133.077 456.566 121.85 455.081 121.85 455.081L116.959 442.594L136.659 439.759Z" fill="#389BBC"/>
<path d="M134.317 463.855L55.5867 454.203L55.7933 452.583L134.524 462.236L134.317 463.855Z" fill="#D3D3D3"/>
<path d="M99.808 457.916C99.6702 459.199 98.637 460.144 97.5349 460.009L57.1709 455.081C56.0688 454.946 54.6912 453.934 53.7269 450.559L38.1599 411.072C38.3666 409.452 39.6753 408.642 40.7774 409.047L82.0368 415.392C83.1389 415.797 83.8966 416.742 84.3099 418.497L99.808 457.916Z" fill="#90E3FF"/>
<path d="M94.7108 458.996L95.124 459.063L134.524 463.923C133.008 464.531 130.598 464.733 127.911 464.396L94.9174 460.346L94.5041 460.278L61.5103 456.228C58.824 455.891 56.551 455.081 55.1733 454.203L94.7108 458.996Z" fill="#D3D3D3"/>
<path d="M136.659 439.759L135.763 394.13C135.763 394.13 136.452 390.283 137.83 386.84C138.174 391.835 140.516 427.812 140.792 432.537C141.136 437.667 145.407 438.207 146.302 439.894C147.267 441.514 146.44 441.851 143.271 441.244C140.172 440.569 141.274 441.109 141.963 442.729C142.652 444.416 140.93 443.944 134.868 441.784C130.46 440.231 121.987 441.784 117.717 442.729L136.659 439.759Z" fill="#389BBC"/>
<path d="M467.561 347.151C470.385 354.306 477.549 396.897 469.559 406.955C468.663 408.102 473.692 409.925 472.796 415.189C472.658 416.067 471.143 420.319 471.143 420.319L464.668 422.007L450.548 406.01C450.548 406.01 456.265 397.302 463.773 364.296C465.977 354.576 466.941 345.531 467.561 347.151Z" fill="#98D2E5"/>
<path d="M414.11 398.045C414.11 398.045 420.929 415.662 437.391 420.387C440.216 421.197 442.006 424.302 440.629 425.314C438.838 426.597 436.496 426.867 432.363 426.867C423.753 426.867 412.043 424.167 403.984 416.202C391.999 404.457 388.211 399.057 389.451 393.185C390.553 387.178 414.11 398.045 414.11 398.045Z" fill="#98D2E5"/>
<path d="M386.695 342.494C383.182 348.299 381.185 357.613 381.254 370.978C381.254 381.305 390.071 398.247 391.379 403.445C391.586 404.322 392.137 408.035 392.137 408.035L401.849 417.754L421.342 404.322L415.419 395.075L413.628 395.277C413.628 395.277 412.526 390.148 412.801 388.19C413.077 386.233 407.428 359.571 404.604 342.494C403.02 332.571 390.139 336.756 386.695 342.494Z" fill="#98D2E5"/>
<path d="M404.191 394.873L409.908 393.118L412.25 392.51C412.388 394.13 413.765 395.21 413.765 395.21L409.288 395.75L404.122 397.37L398.061 401.623L404.191 394.873Z" fill="#389BBC"/>
<path d="M436.152 420.319L446.07 417.552C446.07 417.552 448.894 421.399 448.343 422.344C447.792 423.289 448.343 428.959 448.343 428.959L443.522 433.144L439.596 431.794C439.596 431.794 439.32 430.039 440.629 429.904C442.006 429.702 439.733 428.757 439.045 428.352C438.356 427.879 432.639 424.909 436.152 420.319Z" fill="#FFF1CA"/>
<path d="M420.86 326.902C419.758 330.074 421.411 333.651 424.58 334.731L430.228 336.756C433.396 337.904 436.84 336.149 437.942 332.976L442.971 318.397C444.073 315.224 442.42 311.647 439.251 310.499L433.603 308.475C430.434 307.327 426.99 309.082 425.888 312.254L420.86 326.902Z" fill="#FFF1CA"/>
<path d="M445.519 339.727C444.968 341.819 442.764 343.102 440.698 342.494L423.684 337.702C421.618 337.094 420.378 334.934 420.929 332.774L427.886 307.192C428.437 305.1 430.641 303.817 432.708 304.425L449.721 309.15C451.787 309.757 453.027 311.917 452.476 314.077L445.519 339.727Z" fill="#FFF1CA"/>
<path d="M454.336 311.512C454.474 311.377 452.752 309.487 453.647 305.775C454.818 300.78 451.03 298.755 448.206 298.687C446.553 298.62 440.973 301.252 438.011 302.13C435.05 303.007 435.325 301.86 429.952 300.915C426.371 300.24 425.544 302.197 424.304 304.897C423.064 307.665 422.927 318.194 422.927 318.194C423.409 318.869 424.166 319.409 424.649 318.869C425.131 318.329 427.059 309.892 428.644 307.395C430.159 304.897 436.358 308.88 439.733 310.837C443.04 312.794 446.002 313.132 451.305 312.052C451.925 312.727 452.476 313.469 452.476 313.807C452.476 314.482 450.961 319.274 450.961 319.274C450.961 319.274 453.923 317.452 454.749 316.034C455.163 315.562 455.3 313.267 454.336 311.512Z" fill="#7AC9F0"/>
<path d="M426.302 327.442C426.095 328.117 425.406 328.589 424.718 328.387L421.067 327.374C420.378 327.172 419.965 326.429 420.171 325.754L422.031 318.937C422.238 318.262 422.927 317.789 423.615 317.992L427.266 319.004C427.955 319.207 428.368 319.949 428.162 320.624L426.302 327.442Z" fill="#98D2E5"/>
<path d="M424.029 320.962C424.029 320.962 421.273 331.019 420.378 334.394C419.551 337.432 418.931 344.451 435.807 349.176C445.795 351.944 447.448 344.384 448.137 341.954C448.619 340.064 448.068 333.922 447.31 332.572C447.31 332.504 446.208 336.757 446.208 336.757C446.208 336.757 445.244 332.099 440.491 330.817C432.845 328.657 429.815 332.774 426.508 331.694C423.891 330.817 423.133 325.957 424.029 320.962Z" fill="#98D2E5"/>
<path d="M435.532 336.419L440.767 337.904C441.455 338.106 442.213 337.701 442.351 336.959L442.557 336.216L434.774 334.056L434.567 334.799C434.43 335.541 434.843 336.216 435.532 336.419Z" fill="#389BBC"/>
<path d="M518.533 438.679C516.122 445.496 473.691 470.538 459.433 469.053L416.521 471.146C380.083 466.623 362.794 409.115 362.794 409.115C364.24 394.67 400.196 415.594 413.008 422.074C433.259 432.334 446.139 432.874 446.139 432.874C459.709 434.292 475.413 423.627 492.565 423.289C511.369 422.817 522.39 427.947 518.533 438.679Z" fill="#389BBC"/>
<path d="M425.268 431.794C425.268 431.727 425.268 431.727 425.268 431.794V429.904L499.04 428.554V430.444L498.833 430.782C497.937 432.402 496.215 432.672 494.287 432.739L430.09 433.954C428.161 434.022 426.439 433.752 425.475 432.199L425.268 431.794Z" fill="#D3D3D3"/>
<path d="M443.04 431.727L442.833 432.064C442.558 432.469 442.213 432.807 441.8 433.009L430.572 433.212C428.713 433.279 427.059 433.077 426.095 431.794L425.888 431.524L425.82 431.457V430.579L442.902 430.242L443.04 431.727ZM453.027 431.052L489.878 430.377V429.094L452.958 429.837L453.027 431.052ZM443.453 429.499L452.339 392.51C452.545 391.565 453.51 390.755 454.474 390.688L506.272 389.743C507.236 389.743 507.787 390.485 507.581 391.498L498.695 428.487L443.453 429.499Z" fill="#D3D3D3"/>
<path d="M410.046 480.663C415.143 481.54 419.069 475.533 419.069 475.533L432.294 465.003L429.47 457.848L403.709 469.593C403.709 469.593 404.88 479.785 410.046 480.663Z" fill="#7AC9F0"/>
<path d="M419 475.128C419 475.128 419 475.735 418.036 478.503C417.072 481.27 415.832 482.215 414.592 482.62C409.633 484.105 406.12 483.363 394.272 485.658C382.425 487.953 378.843 486.198 375.399 480.663C371.955 475.128 375.537 470.741 381.323 470.336C389.657 469.728 394.341 470.673 398.681 469.998C403.227 469.323 403.502 468.243 406.189 466.556C408.668 465.003 411.01 474.318 408.668 476.478C406.533 478.368 417.278 478.638 419 475.128Z" fill="#389BBC"/>
<path d="M416.521 480.461C411.63 481.946 408.048 481.203 396.201 483.498C384.354 485.793 380.772 484.038 377.328 478.503C375.743 475.938 375.675 473.643 376.57 471.888C373.953 473.711 373.057 476.883 375.399 480.663C378.843 486.198 382.425 487.953 394.272 485.658C406.12 483.363 409.702 484.106 414.592 482.621C415.556 482.351 416.521 481.676 417.347 480.123C417.072 480.258 416.796 480.393 416.521 480.461Z" fill="#7AC9F0"/>
<path d="M419 475.331V475.196C419 475.263 418.931 475.331 418.863 475.398C418.931 475.331 419 475.331 419 475.331Z" fill="#E9DCB8"/>
<path d="M393.446 479.448C393.101 479.583 392.757 478.84 392.619 477.828C392.413 475.735 391.93 473.711 391.242 471.618C390.897 470.606 390.897 469.728 391.31 469.593C391.724 469.458 392.413 470.201 392.688 471.213C393.377 473.238 393.79 475.33 393.997 477.355C394.135 478.368 393.79 479.313 393.446 479.448ZM397.096 478.773C396.683 478.84 396.339 478.165 396.201 477.22C395.994 475.263 395.512 473.306 394.823 471.416C394.479 470.471 394.479 469.661 394.961 469.593C395.374 469.526 396.063 470.268 396.408 471.213C397.028 473.103 397.51 475.06 397.716 476.95C397.785 477.895 397.51 478.705 397.096 478.773ZM400.954 478.638C400.54 478.705 400.127 477.963 399.989 476.95C399.645 474.925 399.163 472.968 398.405 470.943C398.061 469.931 398.061 469.121 398.474 469.121C398.956 469.121 399.645 469.863 399.989 470.876C400.747 472.833 401.229 474.858 401.505 476.815C401.642 477.76 401.367 478.57 400.954 478.638Z" fill="#7AC9F0"/>
<path d="M410.941 463.451C410.941 463.451 501.657 425.584 506.823 425.517C524.319 425.382 520.324 443.336 511.438 451.841C500.968 461.831 421.342 480.123 421.342 480.123L410.941 463.451Z" fill="#389BBC"/>
<path d="M446.897 470.065L422.1 446.171L432.708 435.574L459.709 464.463L446.897 470.065Z" fill="#7AC9F0"/>
<path d="M451.994 451.301C451.994 451.301 388.969 392.645 384.767 390.89C370.371 384.95 361.485 401.082 361.967 406.684C362.656 413.907 426.646 472.63 426.646 472.63L451.994 451.301Z" fill="#389BBC"/>
<path d="M489.327 471.888C490.774 473.238 491.049 477.355 491.049 477.355C491.049 477.355 470.041 485.455 462.671 485.59C460.742 485.658 457.298 484.848 453.992 483.903C453.441 483.768 452.132 482.283 451.581 482.148C450.548 481.878 450.341 482.823 449.514 482.553C447.31 481.81 445.657 481.203 445.588 481.068C441.111 471.483 442.626 466.758 442.626 466.758C442.626 466.758 452.27 469.593 450.616 467.366C447.104 462.641 457.229 457.848 459.433 460.346C468.525 470.403 485.057 467.906 489.327 471.888Z" fill="#389BBC"/>
<path d="M490.498 473.913C484.023 476.546 470.454 481.878 467.768 482.08C456.678 482.89 448.963 478.908 443.797 476.545C444.279 477.895 444.83 479.448 445.588 481.068C445.657 481.203 447.241 481.81 449.514 482.553C450.41 482.823 450.616 481.81 451.581 482.148C452.132 482.283 453.372 483.768 453.992 483.903C457.298 484.848 460.742 485.59 462.671 485.59C470.041 485.455 491.049 477.355 491.049 477.355C491.049 477.355 491.049 475.466 490.498 473.913ZM475.689 467.703C475.896 468.108 475.069 468.513 473.898 468.783C471.487 469.256 469.145 469.998 466.803 470.943C465.632 471.416 464.599 471.551 464.461 471.146C464.324 470.741 465.081 469.998 466.252 469.526C468.525 468.581 470.936 467.906 473.278 467.433C474.38 467.096 475.482 467.298 475.689 467.703ZM470.936 466.016C471.143 466.421 470.316 466.961 469.145 467.298C466.803 467.973 464.53 468.918 462.257 470.066C461.155 470.606 460.122 470.808 459.984 470.403C459.846 469.998 460.604 469.121 461.706 468.581C463.91 467.501 466.183 466.556 468.525 465.948C469.696 465.476 470.798 465.611 470.936 466.016ZM466.39 464.531C466.528 464.936 465.77 465.543 464.668 465.948C462.395 466.826 460.191 467.906 458.056 469.188C457.022 469.863 456.058 470.066 455.92 469.593C455.782 469.188 456.471 468.243 457.573 467.568C459.709 466.286 461.913 465.206 464.117 464.396C465.219 464.058 466.252 464.126 466.39 464.531Z" fill="#7AC9F0"/>
</svg>
