<svg width="96" height="102" viewBox="0 0 96 102" fill="none" xmlns="http://www.w3.org/2000/svg">
<path d="M46.3518 0L0 23.6316V35.926H96V23.5664L46.3518 0ZM89.6 29.1492H6.4V27.89L46.4482 7.47228L89.6 27.9552V29.1492Z" fill="#389BBC"/>
<path d="M89.6001 83.3638H6.40015V90.1406H89.6001V83.3638Z" fill="#389BBC"/>
<path d="M96 95.2231H0V102H96V95.2231Z" fill="#389BBC"/>
<path d="M14.4 42.7029H8V76.587H14.4V42.7029Z" fill="#389BBC"/>
<path d="M88.0001 42.7029H81.6001V76.587H88.0001V42.7029Z" fill="#389BBC"/>
<path d="M68.7997 42.7029H62.3997V76.587H68.7997V42.7029Z" fill="#389BBC"/>
<path d="M33.6 42.7029H27.2V76.587H33.6V42.7029Z" fill="#389BBC"/>
<path d="M51.2 42.7029H44.8V76.587H51.2V42.7029Z" fill="#389BBC"/>
</svg>
