<svg width="653" height="462" viewBox="0 0 653 462" fill="none" xmlns="http://www.w3.org/2000/svg">
<line x1="0.5" x2="0.5" y2="462" stroke="white" stroke-opacity="0.13"/>
<g clip-path="url(#clip0_92_86)">
<path opacity="0.05" d="M618.345 360.196C624.391 360.294 632.176 361.756 633.109 367.545C633.614 370.56 631.834 373.493 629.907 375.927C617.856 391.206 597.887 398.932 578.182 401.005C558.477 403.078 538.616 400.176 518.942 397.824C490.514 394.417 461.972 392.156 433.316 391.04C412.943 390.241 391.513 389.744 373.968 379.673C370.712 377.812 367.511 375.482 365.949 372.136C362.841 365.48 367.752 357.377 374.496 354.143C381.241 350.91 389.166 351.226 396.688 351.618C470.55 355.477 544.358 360.196 618.345 360.196Z" fill="#000501"/>
<path d="M618.602 95.2764C618.602 95.2764 592.315 128.254 587.327 133.779C578.228 143.819 572.362 156.987 572.362 156.987L559.153 211.515L544.389 207.693L512.291 199.402C512.291 199.402 523.698 169.598 518.173 160.553C510.807 148.492 517.179 140.955 518.857 135.776C521.965 126.181 506.091 108.641 506.091 108.641L495.92 64.4472L511.273 62.4573L522.416 98.2839L541.507 114.814L555.104 115.515C555.104 115.515 565.361 117.565 572.82 114.219C579.953 111.008 605.152 83.4422 605.152 83.4422L615.432 92.4874L618.602 95.2764ZM492.672 151.198V347.6C492.671 350.061 492.17 352.498 491.198 354.771C490.227 357.044 488.803 359.109 487.008 360.849C485.214 362.588 483.084 363.967 480.74 364.908C478.396 365.849 475.884 366.333 473.347 366.332H170.554C168.017 366.332 165.504 365.847 163.16 364.905C160.816 363.962 158.687 362.581 156.893 360.841C155.099 359.1 153.676 357.033 152.706 354.759C151.736 352.484 151.237 350.047 151.238 347.585V151.198C151.236 148.737 151.734 146.299 152.704 144.024C153.674 141.749 155.096 139.682 156.89 137.941C158.684 136.2 160.815 134.819 163.159 133.877C165.504 132.936 168.017 132.451 170.554 132.452H473.347C478.473 132.452 483.388 134.427 487.012 137.943C490.636 141.458 492.672 146.227 492.672 151.198Z" fill="#389BBC"/>
<path d="M487.435 138.445H155.954L158.643 136.447C158.767 136.343 158.897 136.245 159.031 136.153L316.718 18.897L321.698 15.196L482.128 134.503L487.435 138.445Z" fill="#389BBC"/>
<path d="M492.672 151.199L488.639 154.025L459.276 174.656L316.718 274.824L179.614 172.395L151.238 151.199L151.603 147.558C152.294 144.144 153.958 140.987 156.405 138.445C157.092 137.719 157.84 137.051 158.643 136.447C158.767 136.343 158.897 136.245 159.031 136.153C162.359 133.745 166.402 132.446 170.554 132.452H473.347C478.149 132.455 482.777 134.19 486.332 137.321C489.887 140.452 492.113 144.754 492.578 149.389C492.641 149.991 492.672 150.594 492.672 151.199Z" fill="#389BBC"/>
<path opacity="0.61" d="M158.643 136.432C157.844 137.04 157.096 137.708 156.405 138.43H155.954L158.643 136.432Z" fill="url(#paint0_linear_92_86)"/>
<path opacity="0.61" d="M492.672 151.199L488.639 154.033L459.276 174.656L316.718 274.824L179.614 172.402L151.238 151.199L151.603 147.565C152.294 144.15 153.958 140.99 156.405 138.445C157.096 137.723 157.844 137.055 158.643 136.447L159.031 136.161L316.718 18.897L321.698 15.196L482.128 134.503C485.021 135.932 487.495 138.046 489.322 140.65C491.149 143.253 492.269 146.262 492.578 149.397C492.641 149.996 492.672 150.597 492.672 151.199Z" fill="url(#paint1_linear_92_86)"/>
<path d="M459.276 136.688V174.663L406.664 211.598L394.597 220.101L316.718 274.824L243.469 220.101L232.132 211.628L179.614 172.432V136.688C179.614 133.736 180.823 130.904 182.976 128.816C185.128 126.728 188.047 125.555 191.091 125.555H447.807C450.85 125.557 453.767 126.731 455.917 128.819C458.068 130.906 459.276 133.737 459.276 136.688Z" fill="white"/>
<path d="M420.721 169.982H213.259C212.101 169.982 210.99 169.536 210.171 168.742C209.352 167.947 208.892 166.87 208.892 165.746C208.892 165.19 209.005 164.639 209.224 164.125C209.444 163.611 209.766 163.144 210.171 162.751C210.577 162.357 211.058 162.045 211.588 161.833C212.118 161.62 212.685 161.51 213.259 161.51H420.721C421.294 161.51 421.862 161.62 422.392 161.833C422.922 162.045 423.403 162.357 423.808 162.751C424.214 163.144 424.536 163.611 424.755 164.125C424.974 164.639 425.087 165.19 425.087 165.746C425.087 166.87 424.627 167.947 423.808 168.742C422.989 169.536 421.879 169.982 420.721 169.982Z" fill="#98D2E5"/>
<path d="M420.721 195.045H213.259C212.101 195.045 210.99 194.599 210.171 193.804C209.352 193.01 208.892 191.933 208.892 190.809C208.892 189.686 209.352 188.608 210.171 187.814C210.99 187.019 212.101 186.573 213.259 186.573H420.721C421.879 186.573 422.989 187.019 423.808 187.814C424.627 188.608 425.087 189.686 425.087 190.809C425.087 191.933 424.627 193.01 423.808 193.804C422.989 194.599 421.879 195.045 420.721 195.045Z" fill="#7AC9F0"/>
<path d="M406.665 211.628L394.598 220.101H243.469L232.125 211.628H406.665Z" fill="#389BBC"/>
<path opacity="0.05" d="M316.718 274.824L190.174 366.347H445.872L316.718 274.824Z" fill="#000501"/>
<path d="M207.563 67.9899C201.192 54.7311 177.26 56.9095 177.26 56.9095C192.023 48.4598 189.195 27 189.016 25.7336C195.473 44.4422 217.766 40.3115 219.763 39.9045C204.96 43.4472 207.563 67.9899 207.563 67.9899ZM166.071 95.1934C162.023 86.7663 146.801 88.1532 146.801 88.1532C156.436 82.598 154.253 68.299 154.253 68.299V68.3819C158.386 80.2085 172.528 77.5854 173.787 77.3291C164.416 79.5904 166.071 95.1934 166.071 95.1934Z" fill="#389BBC"/>
<path d="M573.66 69.8743C575.535 68.4114 577.909 67.6851 580.311 67.8392C582.069 67.7699 583.789 68.3458 585.128 69.4522C586.159 70.5764 586.815 71.9771 587.009 73.4698C587.388 75.3202 587.531 77.2087 587.436 79.0929C587.265 82.5527 586.34 86.2161 587.879 89.3442C588.246 90.0874 588.74 90.7653 589.34 91.3492C590.035 92.1047 591.003 92.5716 592.044 92.6532C592.561 92.6756 593.069 92.5176 593.477 92.208C593.884 91.8983 594.164 91.4573 594.266 90.9648C593.749 92.082 592.974 93.0691 592.001 93.8502C591.029 94.6313 589.885 95.1855 588.657 95.4702C587.429 95.7549 586.15 95.7624 584.919 95.4923C583.687 95.2222 582.536 94.6815 581.554 93.912L582.906 96.5728C581.787 96.2921 580.703 95.8927 579.674 95.3819C576.371 93.6407 574.522 90.1055 573.644 86.5326C572.867 83.2537 572.712 79.8693 571.981 76.5753C571.414 74.0502 571.554 71.6985 573.66 69.8743Z" fill="#3D5644"/>
<path d="M572.665 73.4924C573.336 73.4714 574.005 73.5711 574.639 73.7864C575.164 73.9981 575.619 74.3455 575.954 74.7907C576.29 75.236 576.493 75.762 576.542 76.3115C576.571 76.8638 576.434 77.4124 576.147 77.8902C575.86 78.368 575.436 78.7545 574.926 79.0025C574.262 79.2675 573.546 79.3885 572.828 79.3568C572.175 79.3568 571.515 79.3568 570.862 79.2965C570.676 79.2969 570.491 79.2529 570.326 79.1683C570.159 79.0355 570.033 78.8609 569.961 78.6633C569.536 77.842 569.215 76.9739 569.005 76.0779C568.469 73.304 570.396 73.4698 572.665 73.4924Z" fill="#389BBC"/>
<path d="M560.023 99.9573C560.023 99.9573 559.898 102.136 559.743 104.97C559.611 107.359 559.448 110.246 559.316 112.643C559.089 116.698 557.294 120.52 554.288 123.347C552.532 125.088 548.344 128.337 545.151 127.183C543.597 126.626 543.542 124.726 543.869 123.588C544.588 121.513 544.988 119.346 545.058 117.158C545.109 115.387 544.944 113.616 544.568 111.882C542.563 107.035 560.023 99.9573 560.023 99.9573Z" fill="url(#paint2_linear_92_86)"/>
<path d="M560.023 99.9573C560.023 99.9573 559.899 102.136 559.743 104.97C558.516 107.623 557.366 109.786 556.736 110.864C555.47 113.043 550.264 116.472 545.081 117.158C545.132 115.387 544.968 113.616 544.592 111.882C542.564 107.035 560.023 99.9573 560.023 99.9573Z" fill="url(#paint3_linear_92_86)"/>
<path d="M544.817 71.0955C542.529 71.2304 540.294 71.821 538.251 72.8304C536.208 73.8398 534.402 75.2464 532.944 76.9626C531.486 78.6788 530.408 80.6679 529.777 82.8058C529.146 84.9438 528.976 87.1848 529.277 89.3894C529.796 95.9751 531.539 102.415 534.42 108.399C539.86 117.445 553.644 110.005 555.827 106.281C558.011 102.558 566.387 85.7638 562.867 81.0075C560.443 77.7965 553.721 70.7487 544.817 71.0955Z" fill="url(#paint4_linear_92_86)"/>
<path d="M539.922 61.9071C545.77 60.2499 552.008 60.4266 557.746 62.4121C563.395 64.4925 568.267 68.7739 570.419 74.2538C572.271 79.3321 572.094 84.8992 569.922 89.8568C567.735 94.7741 564.251 99.0456 559.821 102.241C558.679 98.8493 562.199 95.8342 563.566 92.5252C563.883 91.9136 563.953 91.209 563.76 90.5503C563.263 89.3216 561.367 89.186 560.287 89.985C559.207 90.784 558.733 92.1332 558.337 93.392C559.386 88.0025 560.163 81.6709 556.231 77.7211C553.9 75.3845 550.38 74.5101 547.024 74.4799C543.941 74.4711 540.889 75.076 538.057 76.2571C535.225 77.4382 532.673 79.1705 530.559 81.3468C529.323 82.6357 527.567 84.2186 525.998 83.3292C525.509 83.0052 525.127 82.5528 524.894 82.0252C520.256 73.1156 532.439 63.897 539.922 61.9071Z" fill="#3D5644"/>
<path d="M547.428 71.8643C543.542 70.206 539.463 68.8492 535.244 68.8492C531.025 68.8492 526.65 70.2362 523.861 73.3116C522.404 75.0253 521.344 77.0227 520.753 79.1683C520.284 80.5107 520.099 81.931 520.209 83.3442C520.378 84.3691 520.638 85.3779 520.986 86.3593C521.716 88.8015 522.027 91.6357 520.434 93.6859C520.139 94.0947 519.752 94.4333 519.303 94.6761C518.853 94.9189 518.353 95.0598 517.839 95.0879C517.325 95.0968 516.824 94.9232 516.433 94.5999C516.041 94.2766 515.784 93.8256 515.71 93.3317C515.026 95.2085 516.145 97.4095 517.924 98.397C518.841 98.8496 519.846 99.1085 520.873 99.1566C521.901 99.2047 522.927 99.0408 523.884 98.6759C524.689 98.4295 525.436 98.0326 526.083 97.5075C526.722 96.9103 527.248 96.2087 527.637 95.4347C529.261 92.5779 530.077 89.4045 531.289 86.3216C532.501 83.2387 534.257 80.2915 537.124 78.5578C539.396 77.3548 541.949 76.7396 544.537 76.7714C547.109 76.6884 549.696 76.892 552.261 76.6658C554.825 76.4397 552.968 74.9623 551.864 74.1859C550.472 73.2661 548.985 72.4881 547.428 71.8643Z" fill="#3D5644"/>
<path d="M651.788 44.8417C652.448 45.3392 646.263 50.0126 646.263 50.0126C646.263 50.0126 643.373 54.8442 640.436 56.1859C637.499 57.5276 615.432 92.4799 615.432 92.4799L606.721 84.8216L625.51 60.3015C625.51 60.3015 631.726 48.7462 631.034 43.7186C631.034 43.7186 631.407 37.7789 633.28 40.5377C634.601 42.505 633.754 45.603 635.315 45.9347C635.488 45.9498 635.662 45.913 635.813 45.8292C637.108 45.0662 638.296 44.144 639.348 43.0854C642.456 40.2136 646.17 36.2186 646.17 36.2186C646.17 36.2186 648.206 35.3819 647.95 36.2186C647.693 37.0553 643.956 42.701 643.746 43.0025C644.096 42.6935 649.83 37.7261 650.739 38.1106C651.648 38.495 646.295 44.2161 645.984 44.5477C646.318 44.3216 652.433 40.191 652.891 40.5603C653.754 41.2613 648.229 45.9121 647.771 46.2663C648.121 46.0854 651.159 44.3593 651.788 44.8417Z" fill="url(#paint5_linear_92_86)"/>
<path d="M645.23 48.4221C644.766 48.5686 644.274 48.6073 643.792 48.5352C642.226 48.4195 640.653 48.3943 639.084 48.4598C638.027 48.505 635.843 49.2136 635.789 47.6231C635.789 47.201 635.898 46.7864 635.875 46.3643C635.875 46.1834 635.828 46.0025 635.797 45.8216C637.092 45.0586 638.281 44.1364 639.332 43.0779C639.808 43.2322 640.259 43.4531 640.669 43.7337C641.705 44.3819 642.725 45.0226 643.73 45.6558C644.274 46.0025 644.818 46.3492 645.339 46.7261C645.569 46.8657 645.753 47.0674 645.867 47.3065C645.917 47.5357 645.88 47.7748 645.763 47.9798C645.646 48.1848 645.457 48.3418 645.23 48.4221Z" fill="url(#paint6_linear_92_86)"/>
<path d="M493.503 5.59323C492.664 5.68368 495.383 12.8143 495.383 12.8143C495.383 12.8143 495.212 18.3998 496.976 21.038C498.74 23.6761 498.491 64.1158 498.491 64.1158L510.053 62.6083L507.427 32.1485C507.427 32.1485 508.429 19.1535 511.747 15.2415C511.747 15.2415 514.653 10.0028 511.569 11.3897C509.377 12.3847 508.406 15.445 506.906 14.9324C506.75 14.8573 506.622 14.7359 506.541 14.5857C505.836 13.2795 505.313 11.8878 504.987 10.4475C503.892 6.41483 502.928 1.12338 502.928 1.12338C502.928 1.12338 501.685 -0.610291 501.483 0.226393C501.281 1.06308 501.351 7.76408 501.359 8.1485C501.227 7.71886 499.066 0.542975 498.056 0.414835C497.046 0.286694 498.515 7.87715 498.608 8.31433C498.437 7.95252 495.5 1.31936 494.894 1.39473C493.783 1.55303 495.989 8.35202 496.153 8.85705C495.935 8.52539 494.296 5.51785 493.503 5.59323Z" fill="url(#paint7_linear_92_86)"/>
<path d="M497.108 11.9925C497.423 12.3502 497.819 12.6315 498.266 12.8141C499.66 13.5192 501.009 14.3045 502.307 15.1658C503.185 15.7462 504.638 17.4799 505.562 16.1382C505.811 15.7915 505.927 15.3844 506.176 15.0302C506.289 14.8803 506.411 14.7369 506.541 14.6005C505.836 13.2943 505.313 11.9026 504.987 10.4623C504.499 10.3503 503.996 10.3097 503.495 10.3417L499.851 10.4096C499.198 10.4096 498.546 10.4096 497.893 10.4925C497.617 10.4913 497.346 10.57 497.116 10.7186C496.957 10.8945 496.869 11.1201 496.867 11.3541C496.866 11.5881 496.951 11.8148 497.108 11.9925Z" fill="url(#paint8_linear_92_86)"/>
<path d="M452.531 361.214C449.423 367.372 447.162 372.158 447.162 372.158L408.055 373.967C408.055 373.967 414.536 357.332 425.08 361.628C428.646 363.075 441.568 360.354 441.568 360.354L441.972 359.095L452.531 361.214Z" fill="url(#paint9_linear_92_86)"/>
<path d="M591.134 363.075L585.144 366.332L533.861 314.035L528.204 244.221L481.444 285.369C481.444 285.369 482.695 313.703 466.347 335.872C463.417 339.844 457.458 351.384 452.951 360.399C452.811 360.678 452.671 360.965 452.539 361.244L451.661 361.07L448.607 360.452L441.979 359.126L463.472 274.854L512.307 199.432L544.405 207.724L559.168 211.545C559.168 211.545 569.129 230.91 559.168 281.028L552.564 309.716C552.564 309.716 579.184 323.487 587.389 350.729L591.127 363.06L591.134 363.075Z" fill="#3D5644"/>
<path d="M591.135 363.075L597.219 369.249L581.779 384.867H561.577C561.577 384.867 565.882 377.97 574.491 376.877C583.1 375.784 585.159 366.324 585.159 366.324L591.135 363.075Z" fill="url(#paint10_linear_92_86)"/>
<path opacity="0.22" d="M180.687 55.8241L177.276 56.9095C192.039 48.4598 189.21 27 189.032 25.7336C189.265 26.7512 192.699 40.9145 190.827 45.5653C188.488 51.3769 180.687 55.8241 180.687 55.8241ZM156.288 81.7387C154.486 84.1583 147.322 87.8894 146.832 88.1382C156.467 82.5829 154.284 68.2839 154.284 68.2839V68.3668C154.665 69.3467 158.045 79.3718 156.288 81.7387Z" fill="white"/>
<path opacity="0.22" d="M151.813 161.51L310.066 279.633L316.718 274.824L151.238 151.198L151.813 161.51ZM321.955 278.872L492.672 159.671V151.538L316.718 275.156L321.955 278.872Z" fill="white"/>
<path opacity="0.22" d="M492.578 149.729L492.112 150.995L488.639 154.364C491.079 150.279 484.187 140.796 484.187 140.796L481.436 138.799L473.177 132.769L316.718 19.2362L321.698 15.5352L482.128 134.834C485.02 136.265 487.493 138.38 489.32 140.983C491.146 143.586 492.267 146.594 492.578 149.729Z" fill="white"/>
<path opacity="0.61" d="M618.602 95.2764C618.602 95.2764 592.316 128.254 587.327 133.779C578.228 143.819 572.362 156.987 572.362 156.987L559.153 211.515L544.39 207.693C544.39 207.693 558.174 157.696 563.714 147.083C569.254 136.47 615.416 92.4799 615.416 92.4799L618.602 95.2764Z" fill="url(#paint11_linear_92_86)"/>
<path d="M591.127 363.06C590.855 362.307 582.082 338.668 568.912 328.756C555.54 318.686 547.769 304.786 547.769 304.786C544.623 278.103 544.405 207.693 544.405 207.693L559.168 211.515C559.168 211.515 569.129 230.879 559.168 280.998L552.564 309.686C552.564 309.686 579.184 323.487 587.389 350.729L591.127 363.06ZM481.444 285.354C481.444 285.354 482.695 313.688 466.347 335.857C463.417 339.829 457.458 351.369 452.951 360.384L451.661 361.055L448.607 360.437L473.953 282.882C473.953 282.882 504.653 247.598 510.271 244.221C515.889 240.844 528.204 244.221 528.204 244.221L481.444 285.354Z" fill="#233A29"/>
</g>
<defs>
<linearGradient id="paint0_linear_92_86" x1="156.079" y1="140.668" x2="158.899" y2="132.766" gradientUnits="userSpaceOnUse">
<stop offset="0.36" stop-color="#002E0C"/>
<stop offset="0.75" stop-color="#3F64A1" stop-opacity="0.25"/>
<stop offset="1" stop-color="#699AEB" stop-opacity="0"/>
</linearGradient>
<linearGradient id="paint1_linear_92_86" x1="279.491" y1="261.543" x2="362.217" y2="29.6536" gradientUnits="userSpaceOnUse">
<stop offset="0.36" stop-color="#002E0C"/>
<stop offset="0.75" stop-color="#3F64A1" stop-opacity="0.25"/>
<stop offset="1" stop-color="#699AEB" stop-opacity="0"/>
</linearGradient>
<linearGradient id="paint2_linear_92_86" x1="543.713" y1="113.691" x2="560.023" y2="113.691" gradientUnits="userSpaceOnUse">
<stop stop-color="#C4D3EC"/>
<stop offset="0.42" stop-color="#D1DCEF"/>
<stop offset="1" stop-color="#FBBC05"/>
</linearGradient>
<linearGradient id="paint3_linear_92_86" x1="552.354" y1="104.887" x2="549.186" y2="141.499" gradientUnits="userSpaceOnUse">
<stop stop-color="#C4D3EC"/>
<stop offset="0.42" stop-color="#D1DCEF"/>
<stop offset="1" stop-color="#FBBC05"/>
</linearGradient>
<linearGradient id="paint4_linear_92_86" x1="529.145" y1="91.892" x2="563.729" y2="91.892" gradientUnits="userSpaceOnUse">
<stop stop-color="#C4D3EC"/>
<stop offset="0.42" stop-color="#D1DCEF"/>
<stop offset="1" stop-color="#FBBC05"/>
</linearGradient>
<linearGradient id="paint5_linear_92_86" x1="606.721" y1="64.1608" x2="653" y2="64.1608" gradientUnits="userSpaceOnUse">
<stop stop-color="#C4D3EC"/>
<stop offset="0.42" stop-color="#D1DCEF"/>
<stop offset="1" stop-color="#FBBC05"/>
</linearGradient>
<linearGradient id="paint6_linear_92_86" x1="642.355" y1="58.8467" x2="637.949" y2="23.5817" gradientUnits="userSpaceOnUse">
<stop stop-color="#C4D3EC"/>
<stop offset="0.42" stop-color="#D1DCEF"/>
<stop offset="1" stop-color="#FBBC05"/>
</linearGradient>
<linearGradient id="paint7_linear_92_86" x1="521.694" y1="45.2094" x2="483.132" y2="20.3702" gradientUnits="userSpaceOnUse">
<stop stop-color="#C4D3EC"/>
<stop offset="0.42" stop-color="#D1DCEF"/>
<stop offset="1" stop-color="#FBBC05"/>
</linearGradient>
<linearGradient id="paint8_linear_92_86" x1="494.252" y1="22.5929" x2="516.626" y2="-5.54657" gradientUnits="userSpaceOnUse">
<stop stop-color="#C4D3EC"/>
<stop offset="0.42" stop-color="#D1DCEF"/>
<stop offset="1" stop-color="#FBBC05"/>
</linearGradient>
<linearGradient id="paint9_linear_92_86" x1="427.022" y1="354.354" x2="432.678" y2="378.643" gradientUnits="userSpaceOnUse">
<stop stop-color="#68A0FD"/>
<stop offset="0.01" stop-color="#679EF9"/>
<stop offset="0.12" stop-color="#4285F4"/>
<stop offset="0.24" stop-color="#5373A9"/>
<stop offset="0.37" stop-color="#34A853"/>
<stop offset="0.5" stop-color="#467352"/>
<stop offset="0.63" stop-color="#42634B"/>
<stop offset="0.79" stop-color="#405947"/>
<stop offset="0.99" stop-color="#3D5644"/>
</linearGradient>
<linearGradient id="paint10_linear_92_86" x1="574.685" y1="370.673" x2="584.273" y2="384.502" gradientUnits="userSpaceOnUse">
<stop stop-color="#68A0FD"/>
<stop offset="0.01" stop-color="#679EF9"/>
<stop offset="0.12" stop-color="#4285F4"/>
<stop offset="0.24" stop-color="#5373A9"/>
<stop offset="0.37" stop-color="#34A853"/>
<stop offset="0.5" stop-color="#467352"/>
<stop offset="0.63" stop-color="#42634B"/>
<stop offset="0.79" stop-color="#405947"/>
<stop offset="0.99" stop-color="#3D5644"/>
</linearGradient>
<linearGradient id="paint11_linear_92_86" x1="611.22" y1="167.585" x2="553.228" y2="133.137" gradientUnits="userSpaceOnUse">
<stop/>
<stop offset="0.98" stop-opacity="0"/>
</linearGradient>
<clipPath id="clip0_92_86">
<rect width="640" height="450" fill="white" transform="translate(13)"/>
</clipPath>
</defs>
</svg>
