<svg width="600" height="500" viewBox="0 0 600 500" fill="none" xmlns="http://www.w3.org/2000/svg">
<g clip-path="url(#clip0_65_1652)">
<path opacity="0.19" d="M127.004 462.264C128.073 465.044 125.866 468.126 123.167 469.449C120.468 470.772 117.345 470.89 114.426 471.635C109.885 472.791 105.887 475.42 101.491 477.037C95.4564 479.256 88.8873 479.499 82.4454 479.717C63.0096 480.378 42.2666 480.705 25.7504 470.571C25.1289 470.27 24.6249 469.776 24.316 469.164C24.1424 468.558 24.206 467.909 24.4943 467.347C25.8607 464.24 29.7819 463.294 33.1768 462.766C49.1668 460.304 65.5388 458.076 81.7325 457.515C90.1519 457.239 123.812 453.939 127.004 462.264Z" fill="#389BBC"/>
<path opacity="0.28" d="M460.69 463.52C453.331 464.994 446.397 468.017 439.531 471.057L411.99 483.092C427.352 491.249 445.998 487.882 463.448 487.647C464.976 487.647 466.622 487.647 467.836 488.585C469.534 489.9 469.686 492.388 470.747 494.263C472.742 497.814 477.537 498.526 481.636 498.794C518.759 501.181 556.029 500.008 592.922 495.294C594.687 495.067 596.537 494.799 597.963 493.753C602.207 490.629 599.219 483.418 594.415 481.191C589.612 478.963 583.968 479.516 578.867 478.075C573.766 476.635 568.843 471.309 571.228 466.61C550.197 467.018 529.165 466.795 508.134 465.94C492.254 465.27 476.536 460.338 460.69 463.52Z" fill="#7AC9F0"/>
<path opacity="0.28" d="M562.096 282.502C565.542 247.035 583.034 209.517 565.151 177.45C560.458 169.076 553.727 161.899 546.199 155.224C536.252 146.422 524.921 138.475 515.017 129.606C497.491 113.929 487.467 95.1108 473.964 77.8925C468.37 70.6206 462.005 63.9585 454.978 58.0195C452.183 55.6914 449.354 53.3995 446.491 51.1439C423.015 32.7951 396.594 17.0424 366.549 7.89724C323.943 -5.04159 273.282 -2.9563 237.313 20.6602C224.361 29.1605 213.871 39.9638 203.754 51.1439C195.589 60.1634 187.705 69.4258 178.98 77.8674C171.18 85.4716 162.727 92.4393 152.856 98.0252C138.801 105.989 122.624 110.671 107.712 117.362C98.1457 121.653 89.0459 126.892 80.5528 132.998C69.1531 141.165 58.9586 150.855 50.2617 161.79C31.3945 185.524 20.7344 214.123 21.4559 242.915C21.5662 247.421 21.9396 251.951 22.0839 256.474C22.3629 261.44 22.0696 266.421 21.2097 271.322C19.6311 279.361 15.7524 286.915 11.7464 294.402C6.29757 304.611 0.585627 314.694 0.0424413 325.757C-0.908134 344.801 13.3844 361.115 29.2387 375.059C31.8867 377.387 34.5857 379.656 37.2507 381.859C41.4943 385.376 45.8653 388.893 50.2702 392.369L51.1189 393.039C53.4784 394.89 55.8463 396.732 58.2482 398.558C64.2742 403.139 70.4445 407.602 76.7675 411.857C79.5966 413.749 82.4257 415.589 85.2548 417.376C91.8664 421.563 98.6477 425.39 105.624 428.882C122.862 437.525 141.271 443.84 161.08 446.352C215.339 453.052 269.31 429.243 324.036 432.391C359.946 434.452 393.437 447.968 428.234 455.84C463.032 463.713 503.44 464.969 531.499 445.514C557.36 427.618 565.839 396.699 565.907 368.108C565.974 339.517 559.346 311.001 562.096 282.502Z" fill="#389BBC"/>
<path d="M522.715 51.1441H73.7375C70.6602 51.1397 67.6122 51.7334 64.7674 52.8913C61.9226 54.0493 59.3368 55.7488 57.1577 57.8928C54.9785 60.0368 53.2487 62.5833 52.0669 65.387C50.8852 68.1906 50.2747 71.1965 50.2702 74.233V393.047H546.157V74.2665C546.157 68.134 543.688 62.2528 539.293 57.9165C534.899 53.5802 528.938 51.1441 522.723 51.1441H522.715Z" fill="#389BBC"/>
<path opacity="0.47" d="M140.125 341.543C139.276 350.278 131.332 356.693 123.15 359.44C118.907 360.864 114.4 361.659 110.759 364.255C107.118 366.851 104.733 372.102 107.025 375.98C109.811 375.967 112.536 376.783 114.846 378.32C117.156 379.857 118.944 382.044 119.976 384.597C114.74 392.461 105.463 396.757 96.2118 397.997C86.9607 399.236 77.5398 397.779 68.3735 396.272C65.1569 395.752 61.728 395.116 59.411 392.788C57.0939 390.46 56.4574 387.076 55.8803 383.869C55.8039 383.417 55.719 382.964 55.6341 382.504H50.0665V77.8674H80.4594V222.749C80.4594 234.565 79.9162 246.483 80.103 258.257C80.2897 269.463 87.8434 275.141 95.0406 283.289C97.2558 285.802 99.5558 288.465 100.209 291.773C100.914 295.282 99.6407 299 100.583 302.442C102.212 308.422 109.842 310.683 115.699 308.991C121.555 307.299 126.248 302.944 131.298 299.477C140.025 293.505 150.27 290.056 160.876 289.52C157.32 304.402 139.828 313.806 139.421 329.14C139.293 333.294 140.532 337.398 140.125 341.543Z" fill="url(#paint0_linear_65_1652)"/>
<path d="M28.67 354.675C21.0315 342.49 15.6845 328.797 14.1653 314.552C13.2317 305.867 13.6306 296.706 9.65853 288.9C7.29907 284.261 3.45433 280.274 2.26611 275.208C0.0594134 265.744 7.75738 257.093 14.8273 250.335C15.2514 249.834 15.8196 249.472 16.4568 249.297C17.5602 249.096 18.5532 250 19.2237 250.896C23.2721 256.281 23.5947 263.458 24.6301 270.049C25.7419 277.209 28.1184 284.613 33.6436 289.394C39.1688 294.176 47.6816 296.278 50.406 303.028C52.8249 309.041 49.3536 316.135 51.5348 322.24C53.716 328.345 61.1763 332.005 62.2967 338.436C63.0435 342.707 60.718 346.945 60.7859 351.275C60.8368 354.574 62.2712 357.681 63.086 360.889C64.8344 367.773 63.086 387.931 52.4854 382.035C42.8862 376.717 34.3056 363.661 28.67 354.675Z" fill="#98D2E5"/>
<path d="M28.67 354.675C21.0315 342.49 15.6845 328.797 14.1653 314.552C13.2317 305.867 13.6306 296.705 9.65853 288.9C7.29907 284.261 3.45433 280.274 2.26611 275.208C0.0594136 265.744 7.75738 257.093 14.8273 250.335C15.2514 249.834 15.8196 249.472 16.4568 249.297C17.5602 249.096 18.5532 250 19.2237 250.896C23.2721 256.281 23.5947 263.458 24.6301 270.049C25.7419 277.209 28.1184 284.612 33.6436 289.394C39.1688 294.176 47.6816 296.278 50.406 303.028C52.8249 309.041 49.3535 316.135 51.5348 322.24C53.716 328.345 61.1763 332.005 62.2967 338.436C63.0435 342.707 60.718 346.945 60.7859 351.275C60.8368 354.574 62.2712 357.681 63.086 360.889C64.8344 367.773 63.086 387.931 52.4854 382.035C42.8862 376.717 34.3056 363.661 28.67 354.675Z" fill="#389BBC"/>
<path d="M47.9362 340.831C45.1608 326.779 45.0675 312.09 48.7849 298.238C51.034 289.788 54.726 281.363 53.7669 272.678C53.2237 267.511 51.051 262.436 51.7639 257.294C53.0964 247.672 63.3915 242.22 72.422 238.401C73.0024 238.087 73.6633 237.947 74.3231 237.999C75.435 238.2 76.0206 239.389 76.3346 240.461C78.1933 246.91 75.9357 253.71 74.5268 260.267C73.0076 267.352 72.5748 275.107 76.0206 281.505C79.4664 287.904 86.6891 292.845 86.8164 300.105C86.9268 306.579 81.1384 312.006 80.9941 318.471C80.8499 324.936 86.5109 330.966 85.2378 337.381C84.3891 341.635 80.7056 344.784 79.2203 348.854C78.083 351.961 78.3122 355.37 77.9302 358.653C77.0815 365.704 68.2717 383.969 60.4295 374.732C53.368 366.391 49.9731 351.191 47.9362 340.831Z" fill="#98D2E5"/>
<path d="M67.5078 343.168C74.8069 330.79 84.5418 319.719 96.5598 311.663C103.893 306.763 112.27 302.802 117.379 295.667C120.418 291.429 122.183 286.204 126.146 282.795C133.573 276.422 144.937 279.043 154.307 282.025C154.954 282.161 155.545 282.484 156.005 282.954C156.709 283.792 156.361 285.107 155.877 286.12C152.975 292.175 146.728 295.818 141.296 299.838C135.415 304.176 129.915 309.728 128.234 316.779C126.554 323.831 128.684 332.247 123.923 337.791C119.679 342.733 111.71 343.042 107.279 347.841C102.849 352.64 103.087 360.83 97.8584 364.833C94.3871 367.488 89.5069 367.463 85.6706 369.557C82.7425 371.156 80.6377 373.861 78.1509 376.08C72.8209 380.846 53.9876 388.843 54.2592 376.801C54.4884 365.955 62.1184 352.296 67.5078 343.168Z" fill="#98D2E5"/>
<path d="M67.5078 343.168C74.8069 330.79 84.5418 319.719 96.5598 311.663C103.893 306.763 112.27 302.802 117.379 295.667C120.418 291.429 122.183 286.204 126.146 282.795C133.573 276.422 144.937 279.043 154.307 282.025C154.954 282.161 155.545 282.484 156.005 282.954C156.709 283.792 156.361 285.107 155.877 286.12C152.975 292.175 146.728 295.818 141.296 299.838C135.415 304.176 129.915 309.728 128.234 316.779C126.554 323.831 128.684 332.247 123.923 337.791C119.679 342.733 111.71 343.042 107.279 347.841C102.849 352.64 103.087 360.83 97.8584 364.833C94.3871 367.488 89.5069 367.463 85.6706 369.557C82.7425 371.156 80.6377 373.861 78.1509 376.08C72.8209 380.846 53.9876 388.843 54.2592 376.801C54.4884 365.955 62.1184 352.296 67.5078 343.168Z" fill="#7AC9F0"/>
<path d="M113.068 386.708L111.93 393.047L110.954 398.566L108.629 411.865L107.704 417.384L105.361 430.691L104.385 436.202L98.5628 469.265H38.023L32.1498 436.202L31.1738 430.691L28.8483 417.384L27.8637 411.865L25.4533 398.566L24.4943 393.047L23.374 386.716C23.1213 385.296 23.1548 383.841 23.4724 382.434C23.79 381.027 24.3856 379.695 25.2251 378.515C26.0645 377.336 27.1314 376.331 28.3648 375.558C29.5981 374.785 30.9737 374.26 32.4129 374.012C33.0491 373.902 33.6936 373.846 34.3395 373.844H102.102C103.725 373.842 105.329 374.191 106.801 374.866C108.273 375.541 109.576 376.527 110.62 377.754C111.664 378.98 112.423 380.417 112.843 381.964C113.263 383.512 113.334 385.131 113.051 386.708H113.068Z" fill="#98D2E5"/>
<path d="M113.068 386.708L111.93 393.047L110.954 398.566L108.629 411.865L107.704 417.384L105.361 430.691L104.385 436.202L98.5628 469.265H38.023L32.1498 436.202L31.1738 430.691L28.8483 417.384L27.8637 411.865L25.4533 398.566L24.4943 393.047L23.374 386.716C23.1213 385.296 23.1548 383.841 23.4724 382.434C23.79 381.027 24.3856 379.695 25.2251 378.515C26.0645 377.336 27.1314 376.331 28.3648 375.558C29.5981 374.785 30.9737 374.26 32.4129 374.012C33.0491 373.902 33.6936 373.846 34.3395 373.844H102.102C103.725 373.842 105.329 374.191 106.801 374.866C108.273 375.541 109.576 376.527 110.62 377.753C111.664 378.98 112.423 380.417 112.843 381.964C113.263 383.512 113.334 385.131 113.051 386.708H113.068Z" fill="#389BBC"/>
<path d="M546.157 74.2664V77.8675H50.2702V74.2664C50.2702 68.134 52.7391 62.2527 57.1337 57.9164C61.5283 53.5801 67.4887 51.144 73.7036 51.144H522.681C525.758 51.1429 528.806 51.7399 531.649 52.9009C534.493 54.0619 537.077 55.7642 539.253 57.9105C541.43 60.0569 543.157 62.6052 544.336 65.4101C545.514 68.2151 546.122 71.2216 546.123 74.2581L546.157 74.2664Z" fill="#98D2E5"/>
<path d="M75.3331 68.6805C78.2252 68.6805 80.5697 66.3671 80.5697 63.5133C80.5697 60.6596 78.2252 58.3462 75.3331 58.3462C72.441 58.3462 70.0964 60.6596 70.0964 63.5133C70.0964 66.3671 72.441 68.6805 75.3331 68.6805Z" fill="#389BBC"/>
<path d="M92.9103 68.6805C95.8024 68.6805 98.1469 66.3671 98.1469 63.5133C98.1469 60.6596 95.8024 58.3462 92.9103 58.3462C90.0182 58.3462 87.6736 60.6596 87.6736 63.5133C87.6736 66.3671 90.0182 68.6805 92.9103 68.6805Z" fill="#389BBC"/>
<path d="M110.479 68.6805C113.371 68.6805 115.716 66.3671 115.716 63.5133C115.716 60.6596 113.371 58.3462 110.479 58.3462C107.587 58.3462 105.242 60.6596 105.242 63.5133C105.242 66.3671 107.587 68.6805 110.479 68.6805Z" fill="#389BBC"/>
<path d="M354.081 190.13V285.785C354.077 289.028 352.768 292.136 350.444 294.429C348.119 296.721 344.968 298.01 341.681 298.012H244.748C241.461 298.01 238.31 296.721 235.985 294.429C233.661 292.136 232.352 289.028 232.348 285.785V190.13C232.348 186.887 233.653 183.777 235.977 181.484C238.301 179.191 241.453 177.903 244.739 177.903H341.681C344.962 177.9 348.109 179.182 350.434 181.466C352.758 183.75 354.07 186.851 354.081 190.088V190.13Z" fill="url(#paint1_linear_65_1652)"/>
<path d="M303.123 226.551C303.173 228.317 302.738 230.064 301.864 231.606C300.99 233.148 299.709 234.428 298.158 235.311C297.765 235.535 297.439 235.859 297.215 236.249C296.991 236.64 296.877 237.082 296.885 237.53V258.467C296.885 259.24 296.574 259.981 296.02 260.528C295.466 261.074 294.715 261.381 293.932 261.381H292.489C291.705 261.381 290.954 261.074 290.4 260.528C289.846 259.981 289.535 259.24 289.535 258.467V237.53C289.539 237.081 289.424 236.639 289.2 236.249C288.977 235.858 288.653 235.531 288.262 235.303C286.765 234.451 285.519 233.227 284.649 231.754C283.779 230.28 283.314 228.608 283.301 226.902C283.288 225.197 283.728 223.518 284.575 222.031C285.423 220.545 286.65 219.304 288.134 218.429C289.618 217.555 291.308 217.08 293.036 217.049C294.764 217.018 296.471 217.434 297.986 218.255C299.501 219.076 300.772 220.273 301.673 221.729C302.574 223.184 303.074 224.846 303.123 226.551ZM111.956 393.047L110.98 398.566H25.4788L24.5028 393.047H111.956ZM108.629 411.865L107.661 417.384H28.8228L27.8383 411.865H108.629ZM105.319 430.692L104.343 436.202H32.1499L31.1738 430.692H105.319Z" fill="#98D2E5"/>
<path opacity="0.18" d="M419.45 256.172C415.469 250.67 409.452 246.843 403.044 244.448C401.584 243.903 399.938 243.434 398.512 244.046C397.51 244.591 396.671 245.385 396.076 246.349C392.987 250.536 389.77 255.058 389.473 260.234C389.032 268.106 395.355 276.489 391.298 283.281C390.169 285.173 388.37 286.58 387.054 288.356C384.576 291.706 384.007 296.094 384.338 300.231C384.737 305.197 385.382 311.838 380.629 313.53C379.202 313.943 377.688 313.963 376.25 313.589C372.082 312.751 368.229 310.783 364.147 309.611C360.064 308.438 355.354 308.162 351.806 310.448C351.492 314.92 355.388 318.647 359.487 320.581C363.587 322.516 368.204 323.395 371.964 325.916C377.65 329.718 380.451 336.803 380.273 343.612C380.094 350.42 377.396 356.869 373.95 362.739C372.346 365.47 370.555 368.191 369.893 371.282C368.594 377.445 372.091 383.5 375.443 388.868C376.428 390.434 377.506 392.093 379.22 392.83C380.672 393.316 382.223 393.44 383.736 393.19L443.265 388.165C444.963 388.023 446.94 387.688 447.67 386.172C447.993 385.241 447.993 384.23 447.67 383.299C445.727 375.075 439.607 368.309 437.435 360.135C436.433 356.324 436.323 352.346 436.212 348.41C435.771 332.18 435.219 315.791 431.714 299.837C429.957 291.89 425.629 284.462 423.914 276.715C422.319 269.488 424.508 263.157 419.45 256.172Z" fill="#98D2E5"/>
<path d="M326.03 177.903H315.498V163.942C315.483 158.112 313.122 152.526 308.933 148.413C304.745 144.301 299.072 141.999 293.163 142.013C287.255 142.028 281.594 144.358 277.426 148.49C273.258 152.623 270.925 158.221 270.94 164.051V177.903H260.398V163.666C260.617 155.206 264.183 147.167 270.333 141.269C276.484 135.371 284.729 132.082 293.306 132.108C301.882 132.133 310.108 135.469 316.222 141.403C322.337 147.338 325.854 155.397 326.022 163.858L326.03 177.903Z" fill="#98D2E5"/>
<path d="M546.08 457.239L554.967 465.614L542.176 478.226L526.11 479.591C525.637 478.249 525.674 476.783 526.214 475.466C526.754 474.149 527.761 473.07 529.046 472.431C532 470.855 535.217 469.817 538.544 469.366L538.196 462.884L546.08 457.239ZM447.314 456.594L448.621 467.163L418.525 480.462C418.525 480.462 414.765 474.725 418.618 469.742C422.472 464.759 433.098 461.259 433.098 461.259L434.973 456.661L447.314 456.594Z" fill="#389BBC"/>
<path d="M454.978 293.582C454.978 293.582 444.08 301.529 442.934 313.865C441.789 326.201 441.237 330.53 441.237 330.53L422.14 329.006L421.886 339.424C421.886 339.424 447.22 348.561 451.108 347.003C454.995 345.446 459.858 338.57 459.858 338.57L454.978 293.582Z" fill="#98D2E5"/>
<path d="M454.978 293.582C454.978 293.582 444.08 301.529 442.934 313.865C441.789 326.201 441.237 330.531 441.237 330.531L422.14 329.006L421.886 339.424C421.886 339.424 447.22 348.561 451.108 347.003C454.995 345.446 459.858 338.57 459.858 338.57L454.978 293.582Z" fill="#98D2E5"/>
<path d="M462.311 359.331C462.311 359.331 422.421 391.808 422.098 402.879C421.776 413.951 431.901 457.239 431.901 457.239L447.365 457.155L447.815 411.648C447.815 411.648 480.44 400.409 483.987 393.617C487.535 386.825 495.055 353.695 462.311 359.331Z" fill="#98D2E5"/>
<path d="M462.311 359.331C462.311 359.331 422.421 391.808 422.098 402.879C421.776 413.951 431.901 457.239 431.901 457.239L447.365 457.155L447.815 411.648C447.815 411.648 480.44 400.409 483.987 393.617C487.535 386.825 495.055 353.695 462.311 359.331Z" fill="#98D2E5"/>
<path d="M462.311 359.331C462.311 359.331 464.747 408.859 480.44 424.871C496.133 440.883 536.294 464.91 536.294 464.91L547.693 457.934L509.135 418.221C509.135 418.221 514.711 373.643 508.117 365.83C501.522 358.016 462.311 359.331 462.311 359.331Z" fill="#98D2E5"/>
<path d="M462.311 359.331C462.311 359.331 464.747 408.859 480.44 424.871C496.133 440.883 536.294 464.91 536.294 464.91L547.693 457.934L509.135 418.221C509.135 418.221 514.711 373.643 508.117 365.83C501.522 358.016 462.311 359.331 462.311 359.331Z" fill="#98D2E5"/>
<path d="M462.311 359.331L448.68 302.425C448.68 302.425 456.319 280.726 486.593 287.711C516.867 294.695 508.091 365.83 508.091 365.83C508.091 365.83 474.108 376.951 462.311 359.331Z" fill="#98D2E5"/>
<path d="M462.311 359.331L448.68 302.425C448.68 302.425 456.319 280.726 486.593 287.711C516.867 294.695 508.091 365.83 508.091 365.83C508.091 365.83 474.108 376.951 462.311 359.331Z" fill="#389BBC"/>
<path d="M485.566 296.446C485.566 296.446 483.75 286.974 493.493 289.503C503.237 292.032 518.403 324.677 517.843 329.216C517.283 333.755 469.882 335.622 469.882 335.622L468.753 324.735L493.671 320.623C493.671 320.623 484.522 305.164 485.566 296.446Z" fill="#98D2E5"/>
<path d="M480.915 276.246C479.747 278.629 477.758 280.526 475.305 281.597C474.893 281.737 474.493 281.908 474.108 282.108C473.936 282.216 473.779 282.345 473.641 282.494C472.793 283.432 473.387 284.822 473.641 286.028C474.117 288.775 472.504 291.588 470.178 293.163C468.872 293.99 467.439 294.604 465.935 294.98C463.821 295.525 461.547 295.65 459.943 294.905C457.397 293.724 457.651 289.88 457.091 287.527C455.241 279.889 453.62 272.059 454.46 264.161C454.91 259.974 456.098 255.703 458.653 252.303C461.207 248.903 465.273 246.441 469.567 246.516C473.862 246.591 477.936 249.263 481 252.378C482.071 253.418 482.975 254.613 483.682 255.921C485.668 259.849 484.615 264.547 483.512 268.801C482.95 271.376 482.078 273.875 480.915 276.246Z" fill="#FFF1CA"/>
<path d="M484.327 257.721C484.327 257.721 471.596 257.721 463.898 262.143C457.032 266.071 455.139 274.462 454.562 274.32C453.263 274.027 449.028 265.945 450.811 264.161C452.593 262.378 451.184 262.369 451.184 262.369C451.184 262.369 449.139 259.019 450.166 253.006C451.007 248.614 452.158 244.285 453.611 240.051C453.611 240.051 454.146 238.058 461.852 240.051C469.559 242.044 482.553 248.132 483.274 250.603C483.996 253.073 483.402 254.204 483.402 254.204C483.402 254.204 485.515 255.737 484.327 257.721Z" fill="#98D2E5"/>
<path d="M484.327 257.721C484.327 257.721 471.596 257.721 463.898 262.143C457.032 266.071 455.139 274.462 454.562 274.32C453.263 274.027 449.028 265.945 450.811 264.162C452.593 262.378 451.184 262.369 451.184 262.369C451.184 262.369 449.139 259.019 450.166 253.006C451.007 248.614 452.158 244.285 453.611 240.051C453.611 240.051 454.146 238.058 461.853 240.051C469.559 242.044 482.553 248.132 483.274 250.603C483.996 253.073 483.402 254.204 483.402 254.204C483.402 254.204 485.515 255.737 484.327 257.721Z" fill="#98D2E5"/>
<path d="M463.898 262.11C468.365 263.175 472.903 263.926 477.478 264.354C481.585 264.614 484.547 263.517 484.573 263.324C484.624 262.897 483.24 270.124 483.24 270.124L480.126 271.205C478.924 271.624 477.642 271.773 476.374 271.64L456.947 269.647C456.947 269.647 460.257 263.785 463.898 262.11Z" fill="#98D2E5"/>
<path d="M463.898 262.11C468.365 263.175 472.903 263.926 477.478 264.354C481.585 264.614 484.547 263.517 484.573 263.324C484.624 262.897 483.24 270.124 483.24 270.124L480.126 271.205C478.924 271.624 477.642 271.773 476.374 271.64L456.947 269.647C456.947 269.647 460.257 263.785 463.898 262.11Z" fill="#389BBC"/>
<path d="M471.884 265.828C472.443 265.677 473.034 265.694 473.582 265.878C473.956 265.945 474.294 266.138 474.541 266.423C474.682 266.64 474.78 266.881 474.83 267.135C474.881 267.278 474.881 267.435 474.83 267.578C474.758 267.661 474.665 267.723 474.56 267.757C474.455 267.791 474.343 267.796 474.235 267.771C473.223 267.778 472.219 267.587 471.282 267.21C470.518 266.816 471.239 266.054 471.884 265.828ZM480.847 266.238C481.006 266.097 481.193 265.99 481.396 265.922C481.599 265.854 481.813 265.828 482.027 265.845C482.165 265.837 482.304 265.857 482.434 265.905C482.564 265.952 482.682 266.026 482.782 266.121C482.925 266.306 483.037 266.512 483.113 266.733C483.181 266.868 483.21 267.018 483.198 267.168C483.178 267.254 483.133 267.331 483.068 267.391C483.003 267.451 482.921 267.49 482.833 267.503C482.157 267.768 481.419 267.84 480.703 267.712C480.092 267.537 480.44 266.615 480.847 266.238Z" fill="white"/>
<path d="M470.136 293.163C468.83 293.99 467.397 294.604 465.892 294.98C464.63 293.57 463.82 291.821 463.567 289.956C463.319 288.662 463.169 287.352 463.117 286.036C462.961 284.893 463.246 283.733 463.915 282.787C464.357 282.382 464.888 282.083 465.467 281.914C466.046 281.746 466.656 281.712 467.25 281.815C468.447 281.949 469.601 282.36 470.798 282.485C471.817 282.594 473.039 282.134 474.108 282.075C473.936 282.182 473.779 282.312 473.641 282.46C472.793 283.398 473.387 284.788 473.641 285.994C474.074 288.775 472.462 291.589 470.136 293.163Z" fill="url(#paint2_linear_65_1652)"/>
<path d="M415.546 323.764C415.054 323.379 414.469 323.128 413.848 323.035C413.539 322.998 413.227 323.073 412.97 323.248C412.714 323.422 412.531 323.683 412.456 323.982C412.455 324.408 412.602 324.822 412.872 325.154L414.018 326.921C414.162 327.105 414.248 327.326 414.264 327.558C414.264 328.144 413.416 328.261 412.813 328.186C409.079 327.717 405.353 326.578 401.627 327.064C401.34 327.071 401.065 327.181 400.854 327.373C400.746 327.532 400.697 327.723 400.714 327.913C400.731 328.104 400.813 328.282 400.948 328.42C401.228 328.687 401.573 328.88 401.949 328.981C404.035 329.736 406.178 330.329 408.357 330.757C408.111 331.36 407.305 331.469 406.66 331.494C404.856 331.56 403.06 331.762 401.287 332.097C400.277 332.281 399.038 332.783 399.03 333.772C399.058 334.102 399.191 334.415 399.408 334.667C399.626 334.919 399.918 335.098 400.243 335.179C400.9 335.331 401.581 335.353 402.246 335.246C404.583 335.053 406.933 335.112 409.257 335.421C406.745 335.706 404.359 336.661 402.357 338.185C402.173 338.311 402.022 338.477 401.915 338.671C401.686 339.157 402.119 339.743 402.637 339.91C403.173 340.018 403.729 339.987 404.249 339.818C406.57 339.287 408.938 338.984 411.319 338.914C409.884 339.566 408.547 340.412 407.347 341.426C406.983 341.703 406.692 342.062 406.498 342.473C406.4 342.681 406.368 342.913 406.407 343.139C406.447 343.365 406.556 343.574 406.719 343.737C406.936 343.869 407.181 343.949 407.435 343.969C407.688 343.989 407.943 343.95 408.179 343.855C411.005 343.101 413.5 341.292 416.395 340.873C417.905 340.647 419.654 340.739 420.706 339.642C421.156 339.099 421.47 338.46 421.623 337.775C422.251 335.622 423.549 331.075 422.234 328.981C421.716 328.144 420.46 327.457 419.688 326.837C418.363 325.742 416.98 324.716 415.546 323.764ZM462.845 320.33C462.354 319.946 461.769 319.694 461.148 319.602C460.839 319.564 460.526 319.64 460.27 319.814C460.013 319.988 459.831 320.25 459.756 320.548C459.755 320.974 459.902 321.388 460.172 321.721L461.318 323.488C461.462 323.671 461.547 323.893 461.564 324.124C461.521 324.71 460.715 324.828 460.113 324.752C456.378 324.283 452.652 323.136 448.926 323.63C448.64 323.635 448.366 323.742 448.154 323.931C448.044 324.091 447.993 324.283 448.01 324.475C448.027 324.668 448.111 324.848 448.247 324.987C448.528 325.254 448.872 325.447 449.249 325.548C451.335 326.302 453.477 326.896 455.657 327.323C455.411 327.926 454.604 328.027 453.959 328.052C452.156 328.125 450.36 328.33 448.587 328.663C447.577 328.847 446.338 329.341 446.329 330.338C446.358 330.668 446.49 330.981 446.708 331.233C446.925 331.485 447.217 331.664 447.543 331.745C448.2 331.897 448.88 331.92 449.546 331.812C451.882 331.619 454.233 331.678 456.556 331.988C454.047 332.272 451.664 333.228 449.665 334.751C449.479 334.874 449.325 335.038 449.215 335.229C449.179 335.356 449.169 335.49 449.185 335.621C449.201 335.753 449.244 335.88 449.31 335.995C449.376 336.11 449.465 336.211 449.571 336.292C449.677 336.374 449.798 336.433 449.928 336.468C450.463 336.583 451.02 336.554 451.54 336.385C453.86 335.849 456.229 335.546 458.61 335.48C457.175 336.133 455.838 336.978 454.638 337.992C454.274 338.269 453.983 338.628 453.789 339.039C453.693 339.248 453.663 339.48 453.702 339.705C453.742 339.931 453.849 340.139 454.01 340.304C454.228 340.436 454.475 340.515 454.73 340.536C454.985 340.556 455.242 340.517 455.478 340.421C458.296 339.667 460.792 337.858 463.686 337.44C465.196 337.214 466.945 337.306 467.997 336.209C468.447 335.666 468.761 335.026 468.914 334.341C469.55 332.189 470.84 327.641 469.525 325.539C469.007 324.702 467.751 324.024 466.979 323.404C465.656 322.309 464.277 321.283 462.845 320.33Z" fill="#98D2E5"/>
<path d="M415.546 323.764C415.054 323.379 414.469 323.128 413.848 323.035C413.539 322.998 413.227 323.073 412.97 323.248C412.714 323.422 412.531 323.683 412.456 323.982C412.455 324.408 412.602 324.822 412.872 325.154L414.018 326.921C414.162 327.105 414.248 327.326 414.264 327.558C414.264 328.144 413.415 328.261 412.813 328.186C409.078 327.717 405.353 326.578 401.627 327.064C401.34 327.071 401.065 327.181 400.854 327.373C400.746 327.532 400.697 327.723 400.714 327.913C400.731 328.103 400.813 328.282 400.948 328.42C401.228 328.687 401.573 328.88 401.949 328.981C404.035 329.736 406.178 330.329 408.357 330.757C408.111 331.36 407.305 331.469 406.66 331.494C404.856 331.56 403.06 331.762 401.287 332.097C400.277 332.281 399.038 332.783 399.03 333.772C399.058 334.102 399.191 334.415 399.408 334.667C399.626 334.919 399.918 335.098 400.243 335.179C400.9 335.33 401.581 335.353 402.246 335.246C404.583 335.053 406.933 335.112 409.257 335.421C406.745 335.706 404.359 336.661 402.357 338.185C402.173 338.311 402.022 338.477 401.915 338.671C401.686 339.157 402.119 339.743 402.637 339.91C403.173 340.018 403.729 339.987 404.249 339.818C406.57 339.287 408.938 338.984 411.319 338.914C409.884 339.566 408.547 340.412 407.347 341.426C406.983 341.703 406.692 342.062 406.498 342.473C406.4 342.681 406.368 342.913 406.407 343.139C406.447 343.365 406.556 343.574 406.719 343.737C406.936 343.869 407.181 343.949 407.435 343.969C407.688 343.989 407.943 343.95 408.179 343.855C411.005 343.101 413.5 341.292 416.395 340.873C417.905 340.647 419.654 340.739 420.706 339.642C421.156 339.099 421.47 338.46 421.623 337.775C422.251 335.622 423.549 331.075 422.234 328.981C421.716 328.144 420.46 327.457 419.688 326.837C418.363 325.742 416.98 324.716 415.546 323.764Z" fill="#FFF1CA"/>
<path d="M462.845 320.33C462.354 319.946 461.769 319.694 461.148 319.602C460.839 319.564 460.526 319.64 460.27 319.814C460.013 319.988 459.831 320.25 459.756 320.548C459.755 320.974 459.902 321.388 460.172 321.721L461.318 323.488C461.462 323.671 461.548 323.893 461.564 324.124C461.521 324.71 460.715 324.828 460.113 324.752C456.378 324.283 452.652 323.136 448.926 323.63C448.64 323.635 448.366 323.742 448.154 323.931C448.044 324.091 447.993 324.283 448.01 324.475C448.027 324.668 448.111 324.848 448.247 324.987C448.528 325.254 448.872 325.447 449.249 325.548C451.335 326.302 453.477 326.896 455.657 327.323C455.411 327.926 454.604 328.027 453.959 328.052C452.156 328.125 450.36 328.33 448.587 328.663C447.577 328.847 446.338 329.341 446.329 330.338C446.358 330.668 446.49 330.981 446.708 331.233C446.925 331.485 447.217 331.664 447.543 331.745C448.2 331.897 448.88 331.92 449.546 331.812C451.882 331.619 454.233 331.678 456.556 331.988C454.047 332.272 451.664 333.228 449.665 334.751C449.479 334.874 449.325 335.038 449.215 335.229C449.179 335.356 449.169 335.49 449.185 335.621C449.201 335.753 449.244 335.88 449.31 335.995C449.376 336.11 449.465 336.211 449.571 336.292C449.677 336.374 449.798 336.433 449.928 336.468C450.463 336.583 451.02 336.554 451.54 336.385C453.86 335.849 456.229 335.546 458.61 335.48C457.175 336.133 455.838 336.978 454.638 337.992C454.274 338.269 453.983 338.628 453.79 339.039C453.693 339.248 453.663 339.48 453.702 339.705C453.742 339.931 453.849 340.139 454.01 340.304C454.228 340.436 454.475 340.515 454.73 340.536C454.985 340.556 455.242 340.517 455.478 340.421C458.296 339.667 460.792 337.858 463.686 337.44C465.196 337.214 466.945 337.306 467.997 336.209C468.447 335.666 468.761 335.026 468.914 334.341C469.55 332.189 470.84 327.641 469.525 325.539C469.007 324.702 467.751 324.024 466.979 323.404C465.656 322.309 464.277 321.283 462.845 320.33Z" fill="#FFF1CA"/>
</g>
<defs>
<linearGradient id="paint0_linear_65_1652" x1="231.525" y1="230.805" x2="-412.165" y2="260.952" gradientUnits="userSpaceOnUse">
<stop offset="0.97" stop-color="#0C110D"/>
<stop offset="0.98" stop-color="#2F4334"/>
<stop offset="0.99" stop-color="#3D5644"/>
</linearGradient>
<linearGradient id="paint1_linear_65_1652" x1="321.846" y1="58.5722" x2="274.656" y2="362.221" gradientUnits="userSpaceOnUse">
<stop offset="0.01"/>
<stop offset="0.99" stop-opacity="0"/>
</linearGradient>
<linearGradient id="paint2_linear_65_1652" x1="461.5" y1="284.075" x2="492.274" y2="308.372" gradientUnits="userSpaceOnUse">
<stop stop-color="#C4D3EC"/>
<stop offset="0.42" stop-color="#D1DCEF"/>
<stop offset="1" stop-color="#FBBC05"/>
</linearGradient>
<clipPath id="clip0_65_1652">
<rect width="600" height="500" fill="white"/>
</clipPath>
</defs>
</svg>
