<svg width="84" height="108" viewBox="0 0 84 108" fill="none" xmlns="http://www.w3.org/2000/svg">
<path d="M1.45566 14.5766C0.599389 14.5766 0 15.2893 0 16.1803V16.2694C0 38.2752 3.42508 69.1011 20.5505 90.6615C30.9113 103.758 41.0153 107.144 41.5291 107.322L42.0428 107.5L42.4709 107.322C42.8991 107.144 53.1743 103.758 63.4495 90.6615C80.4893 69.1011 84 38.2752 84 16.2694V16.1803C84 15.2893 83.315 14.5766 82.5443 14.5766C82.2875 14.5766 57.6269 13.6857 43.156 0.945471C42.5566 0.410917 41.7003 0.410917 41.1009 0.945471C26.4587 13.5966 1.71254 14.4875 1.45566 14.5766Z" fill="#389BBC"/>
<path opacity="0.2" d="M41.9572 3.52914C55.4006 14.8439 76.4648 16.893 81.3456 17.1603C81.2599 38.7206 77.6636 68.3884 61.3945 88.9687C52.4893 100.283 43.5841 104.025 41.8716 104.649C40.159 104.025 31.3395 100.283 22.4343 88.9687C6.25077 68.3884 2.65443 38.7206 2.56881 17.1603C7.36391 16.8039 28.5138 14.7548 41.9572 3.52914ZM41.9572 0.5C41.6147 0.5 41.1865 0.589092 40.9297 0.945462C26.4587 13.5966 1.71254 14.4875 1.45566 14.5766C0.599389 14.5766 0 15.2893 0 16.1803V16.2693C0 38.2752 3.42508 69.1011 20.5505 90.6615C30.9113 103.758 41.0153 107.144 41.5291 107.322L42.0428 107.5L42.4709 107.322C42.8991 107.144 53.1743 103.758 63.4495 90.6615C80.4893 69.1011 84 38.2752 84 16.2693V16.1803C84 15.2893 83.315 14.5766 82.5443 14.5766C82.2875 14.5766 57.6269 13.6857 43.156 0.945462C42.7278 0.678185 42.3853 0.5 41.9572 0.5Z" fill="#389BBC"/>
<path d="M10.2752 22.8622C9.5902 22.8622 9.41895 23.7531 9.41895 24.3767V24.4658C9.41895 41.6607 11.9878 65.8047 25.3455 82.6431C33.3945 92.8888 41.2722 95.5615 41.6147 95.6506L41.9572 95.7397L42.2997 95.6506C42.6422 95.5615 50.5199 92.8888 58.5688 82.6431C71.9266 65.8047 74.4954 41.7497 74.4954 24.4658V24.3767C74.4954 23.664 74.1529 23.1294 73.4679 23.1294H73.5535C73.3823 23.1294 54.1162 22.4167 42.8134 12.5275C42.2997 12.082 41.7003 12.082 41.1865 12.5275V12.3493C29.7982 22.2385 10.5321 22.8622 10.2752 22.8622Z" fill="#90E3FF"/>
<path d="M73.4677 23.1294C73.2965 23.1294 54.0304 22.4166 42.7277 12.4383C42.5564 12.2601 42.2139 12.171 41.957 12.171V95.7397L42.2995 95.6506C42.642 95.5615 50.5197 92.8887 58.5687 82.6431C71.9265 65.8046 74.4953 41.7497 74.4953 24.4658V24.3767C74.4953 23.753 74.1528 23.1294 73.4677 23.1294Z" fill="#7AC9F0"/>
</svg>
